<?xml version="1.0" encoding="utf-8"?>
<!-- Generator: Adobe Illustrator 27.4.0, SVG Export Plug-In . SVG Version: 6.00 Build 0)  -->
<svg version="1.1" id="_x2013__xB0__x2013__xAA__x2013_æ_x2013_π_1"
	 xmlns="http://www.w3.org/2000/svg" xmlns:xlink="http://www.w3.org/1999/xlink" x="0px" y="0px" viewBox="0 0 595 842"
	 style="enable-background:new 0 0 595 842;" xml:space="preserve">
<style type="text/css">
	.st0{fill:none;stroke:#000000;stroke-width:1.4173;stroke-linecap:round;stroke-linejoin:round;stroke-miterlimit:22.9256;}
	
		.st1{fill-rule:evenodd;clip-rule:evenodd;fill:none;stroke:#000000;stroke-width:1.4173;stroke-linecap:round;stroke-linejoin:round;stroke-miterlimit:22.9256;}
	.st2{fill-rule:evenodd;clip-rule:evenodd;}
</style>
<path class="st0" d="M168.8,328.7c-0.9,2.4-1.7,4.9-3.5,7.8c-1.8,2.9-4.4,6.3-9.8,9.6c-5.3,3.4-13.3,6.7-17.8,7.6
	c-4.5,0.8-5.4-0.8-5.8,0.6c-0.4,1.4-0.3,6,2,8.2c2.3,2.3,6.7,2.3,12.9,1.1c6.2-1.1,14.2-3.4,18.7-4.9c4.5-1.5,5.6-2.2,5.4-0.3
	c-0.2,1.9-1.6,6.3-4.4,8.6s-6.8,2.2-12.3,1.8c-5.4-0.4-12.2-1.2-16.2-1.9c-4-0.7-5.2-1.4-5.9-7c-0.7-5.6-1-16-1.1-22.3
	c-0.1-6.3,0-8.3,0.7-10c0.7-1.7,2.1-3,4.2-4.3c2.1-1.3,5-2.7,9-3.4c4-0.6,9.1-0.5,11.2,0.1c2.1,0.7,1.2,2-1.6,2.5
	c-2.8,0.5-7.5,0.2-10-0.4c-2.5-0.6-2.7-1.5,0.3-2c3-0.5,9.1-0.6,14.2,0.3c5.1,0.9,9.1,2.9,10.5,4.8c1.4,1.9,0.1,3.6-4.8,4.9
	c-4.9,1.2-13.5,1.9-19.7,1.6c-6.2-0.3-9.9-1.7-11.9-2.5c-2-0.8-2.3-1-0.5,0.6c1.8,1.6,5.6,5.1,11.6,7.3c6,2.2,14.1,3.2,19,3.5
	c4.9,0.2,6.7-0.2,7.5-2.9c0.8-2.6,0.6-7.3,0.6-8.7c0-1.3,0.3,0.7,0.1,4.2c-0.2,3.5-1,8.4-5.1,12c-4.1,3.6-11.5,5.9-17.7,5.9
	c-6.2,0-11.1-2.3-14-5.5c-2.9-3.2-3.8-7.3-3.3-6.6c0.5,0.7,2.4,6.4,7.4,10.5c5,4.1,13.2,6.7,19.4,6.8c6.2,0.1,10.5-2.3,12.3-6.4
	c1.9-4.1,1.4-10.1,1-12.7c-0.3-2.6-0.5-1.9-0.2,2.7c0.3,4.6,1.2,13.1,0.8,18.7c-0.4,5.6-2.2,8.4-4.2,10.6c-2,2.2-4.3,3.9-5.9,4.8
	c-1.6,0.9-2.6,1-5.5,1c-2.9,0-7.7,0-11-0.4c-3.3-0.4-5.1-1.3-6.3-2.1c-1.2-0.7-1.9-1.3-2-2.3c-0.1-0.9,0.5-2.2,6-3.5
	c5.5-1.3,16-2.5,25.8-1.8c9.8,0.7,19,3.3,31,2.5c11.9-0.8,26.6-5,36.8-14.6c10.3-9.6,16.2-24.5,17.2-38.8c1-14.3-2.9-28.1-11.5-38.2
	c-8.6-10.1-21.9-16.4-37.5-17.7c-15.5-1.2-33.2,2.7-44.8,11.4c-11.6,8.8-17.1,22.4-19,31.7c-1.9,9.4-0.1,14.5,8.8,10.5
	c8.9-4,25-17.1,32.2-27.9c7.2-10.9,5.4-19.6,8-23.6c2.6-4,9.6-3.3,15.3,0.5c5.7,3.8,10.2,10.6,9.1,23.4
	c-1.1,12.8-7.8,31.7-14.9,43.8c-7.2,12.2-14.8,17.7-19.5,20.1c-4.7,2.4-6.4,1.7-1.7,0.9c4.7-0.8,15.8-1.7,27.2-9.7
	c11.4-8,22.9-23.1,28.7-35.3c5.7-12.2,5.6-21.7,3.5-27.8c-2-6.2-5.9-9.1-4.9-4.2c1,4.9,7,17.5,8.5,30.9c1.5,13.5-1.4,27.8-8,38.1
	c-6.6,10.3-16.9,16.5-24.6,20.3c-7.8,3.8-13,5.1-9.5,2.7c3.5-2.4,15.6-8.5,21.1-18.6c5.4-10.1,4.1-24.3-3.4-36.7
	c-7.5-12.3-21.3-22.7-31.9-28.3c-10.6-5.6-18.2-6.3-23.6-5.3c-5.4,1-8.8,3.8-6,1.9c2.8-1.9,11.6-8.4,25.7-9.8
	c14.1-1.4,33.5,2.4,46.4,10.3c12.9,7.9,19.3,19.9,26.1,25.6c6.9,5.7,14.3,4.9,22.1,4.5c7.8-0.4,16.1-0.6,21.4-0.6
	c5.3,0,7.6,0.1,8-0.6c0.4-0.7-1-2.3-4.7-3.1c-3.7-0.8-9.6-0.8-14.3-1.2c-4.7-0.4-8.2-1.1-9.9-0.4c-1.7,0.7-1.5,2.9-0.7,3.8
	c0.8,0.9,2.2,0.7,1.9-1.7c-0.4-2.3-2.5-6.7-1.7-8.8c0.8-2.1,4.6-2,5.9-0.9c1.4,1.1,0.4,3.1-0.8,3.6c-1.2,0.5-2.5-0.5-3.9-3.5
	c-1.4-3-3-7.9-3.6-13c-0.6-5.1-0.1-10.5,2.5-12.9c2.7-2.4,7.6-1.8,9.7-0.3c2.1,1.5,1.4,4-0.4,4.9c-1.8,0.9-4.7,0.4-8.1-0.1
	c-3.4-0.5-7.3-0.9-8.8,0.1c-1.5,1.1-0.7,3.7-0.3,8.6c0.4,4.9,0.2,12.2,0.5,16.7c0.3,4.5,1,6.2,1.7,6.5c0.7,0.3,1.4-0.9,1.5-7
	c0.1-6.2-0.5-17.3-1.1-24.8c-0.6-7.5-1.2-11.4,1.4-13.4c2.5-2,8.2-2,12.7-2s8,0,11.4-3.8c3.3-3.8,6.5-11.3,10.5-17.8
	c4-6.5,8.8-12,19.5-13.7c10.7-1.7,27.4,0.5,36.8,3.3c9.4,2.8,11.6,6.3,12.8,12.2c1.2,5.9,1.5,14.1,2,23c0.4,8.8,1,18.3-0.2,25.1
	c-1.2,6.9-4.3,11.2-9.1,13.4c-4.8,2.2-11.3,2.2-23,1.9c-11.7-0.3-28.5-0.9-44-1.2c-15.5-0.4-29.7-0.5-37-0.4c-7.3,0.1-7.8,0.6-8,2.8
	c-0.3,2.2-0.4,6.1,0.4,7.9c0.8,1.8,2.5,1.5,26.7,1.2c24.1-0.3,70.6-0.6,93.3-1.2c22.7-0.7,21.5-1.7,21.4-7.9
	c-0.1-6.2,0.9-17.7,0.9-32.7c0-15-1-33.5-3.3-44.5c-2.2-11-5.7-14.5-12.9-16.2c-7.2-1.7-18-1.5-38.9-1.4
	c-20.9,0.1-51.7,0.3-70.6,0.5c-18.8,0.2-25.6,0.5-28.5,1.7c-2.9,1.2-1.9,3.4-1.6,11.4c0.3,8-0.1,21.7,0.5,28.9
	c0.7,7.2,2.4,7.8,7,7.9c4.6,0.1,12.2-0.1,13.9-0.4c1.7-0.3-2.3-0.6-4.5,0.7c-2.2,1.2-2.5,4-3.8,5.4c-1.3,1.4-3.6,1.4-7.1,1.3
	c-3.5-0.1-8.1-0.2-10.4-1.8c-2.2-1.6-2.1-4.6-0.5-5.9c1.6-1.3,4.6-0.9,4.1-0.7c-0.6,0.1-4.8,0-7.3-4.3c-2.5-4.3-3.4-12.7-3.8-21.5
	c-0.4-8.8-0.4-18.1,0.3-30c0.7-11.9,2.2-26.4,3.2-34c1-7.6,1.6-8.3,8.9-9.3c7.3-1,21.4-2.3,28.4-2.9c7-0.6,7-0.4,7,7.6
	c-0.1,8-0.2,24-0.1,31.1c0.1,7.1,0.4,5.4-0.7,4.3c-1.1-1.1-3.5-1.5-4.7-7.3c-1.2-5.8-1-17-1.2-24c-0.1-7-0.6-9.9,1.5-11.3
	c2.1-1.4,6.7-1.2,11.7-1.1c5,0.1,10.4,0.3,13.2-0.3c2.8-0.6,3.1-1.9,3.3-3.9c0.1-2,0.1-4.8-0.9-6.1c-1-1.3-3-1.2-3.8,0.8
	c-0.8,2-0.4,5.7,0.5,7.8c0.9,2.1,2.2,2.5,16.7,2.9c14.6,0.4,42.4,0.7,56.6,0.1c14.3-0.5,15-1.8,13.7-2.6c-1.3-0.8-4.6-1.1-6.9-0.6
	c-2.2,0.5-3.4,1.8,0.9,2.8c4.3,0.9,14,1.5,23.1,1.9c9.1,0.4,17.7,0.5,21.3,0c3.6-0.5,2.3-1.7,2.2-4.1c-0.1-2.5,0.9-6.2-0.1-8
	c-1-1.7-4.1-1.4-5.4,0.3c-1.3,1.7-0.9,4.9-0.1,7.5c0.7,2.5,1.7,4.4,5,5.1c3.3,0.7,8.8,0.3,12.7,0.1c3.9-0.2,6.2-0.2,7.5-1.5
	c1.2-1.3,1.4-3.9-0.3-5.4c-1.7-1.5-5.1-2-6.6-0.7c-1.4,1.3-0.9,4.3,2.6,6.1c3.5,1.7,9.9,2.2,14.7,2.3c4.9,0.1,8.2,0,9.4-1.4
	c1.2-1.4,0.4-4.2-1.7-5c-2.1-0.8-5.4,0.4-6.4,1.9c-1,1.5,0.3,3.4,3.8,4.4c3.5,1,9.3,1.2,12.3,3.6c3,2.5,3.1,7.2,3.4,15.5
	c0.3,8.3,0.7,20,1.2,29.3c0.4,9.3,0.9,16.3,2.7,19.8c1.8,3.5,5,3.5,8,3.3c3-0.1,5.9-0.4,7.9-6.2c2-5.8,3-17.1,2.7-26.7
	c-0.3-9.6-1.9-17.4-5.1-20.9c-3.3-3.5-8.2-2.8-11.4-2.5c-3.2,0.4-4.6,0.4-4.6,4.6c0.1,4.2,1.7,12.6,2.7,37.8
	c1,25.2,1.4,67.2,1.3,92.9c-0.1,25.7-0.9,35.1-1.9,41.4c-1,6.3-2.3,9.5-17.7,12c-15.4,2.5-45,4.4-79.2,5.6
	c-34.3,1.2-73.2,1.8-95.7,1.9c-22.5,0.1-28.5-0.2-35.1-3.1c-6.6-2.9-13.9-8.3-15.5-7.4c-1.6,0.9,2.6,8,19,10.5
	c16.4,2.4,45.1,0.2,60.1-3.1c15.1-3.2,16.5-7.4,16.6-16.9c0.1-9.4-1-24.1,4.8-31.5c5.9-7.4,18.8-7.6,30.6-7.6
	c11.8,0,22.6,0.2,31.2-2c8.7-2.2,15.4-6.9,19.6-10.9c4.2-4.1,5.9-7.5,6.7-13.5c0.7-6,0.4-14.6,1-19.6s2-6.7,5.1-7.3
	c3-0.7,7.7-0.4,9.8,4.4c2.1,4.8,1.7,14.1,0.9,19.8c-0.8,5.7-2,7.9-5.1,9c-3.2,1.1-8.4,1.1-11.7,0.4c-3.3-0.7-4.8-2.2-6-8.5
	c-1.2-6.3-2.3-17.5-1.5-25.3c0.8-7.8,3.4-12.3,8.3-14.2c4.9-1.9,12.2-1.2,16.2,1.4c4,2.6,4.7,7.1,5.4,14.8
	c0.7,7.8,1.4,18.8,1.7,25.1c0.2,6.4-0.1,8.1-2.3,9c-2.2,0.9-6.4,0.9-6,0.5c0.4-0.4,5.5-1.1,8.8-0.7c3.3,0.4,4.9,2,6.5-1.6
	c1.6-3.6,3.2-12.5,3.1-21.6c-0.1-9.1-1.8-18.5-5.9-24.6c-4.1-6-10.4-8.6-14.8-12.7c-4.3-4.1-6.7-9.6-6.5-13.6
	c0.1-4.1,2.8-6.7,6.2-7.5c3.4-0.9,7.6,0,11.2-3.1c3.6-3.1,6.7-10.2,4.7-15.8c-2-5.6-8.9-9.6-15.8-9.8c-6.9-0.1-13.7,3.6-15.5,9.1
	c-1.8,5.4,1.4,12.5,6.5,15.2c5.1,2.7,12.2,0.9,16.1-2.8c3.8-3.7,4.4-9.3,2-12.8c-2.5-3.5-8-4.8-11.4-3.1c-3.5,1.7-4.9,6.3-3.7,9.9
	c1.2,3.6,5.1,6.2,9.1,8.8"/>
<path class="st1" d="M361.8,455.9c-4.7-2-10.9-5.2-16.2-7.4c-5.2-2.2-9.5-3.5-29.2-11c-19.7-7.6-54.9-21.5-78.3-31.1
	c-23.5-9.6-35.3-15-41.8-17.2c-6.6-2.2-7.9-1.3-8.3,0.1c-0.3,1.4,0.3,3.2-0.6,3.9c-1,0.6-3.6,0-5.2-1.6c-1.6-1.7-2.2-4.4-1.3-6.1
	c0.9-1.7,3.3-2.5,5.7-2c2.4,0.5,4.9,2.3,5.1,2.7c0.2,0.4-2-0.5-3.5,0.3c-1.5,0.8-2.5,3.2-1.7,4.8c0.7,1.6,3.1,2.4,28.8,12.4
	c25.7,9.9,74.7,29,99.6,38.9c24.9,9.9,25.8,10.7,31.4,12c5.6,1.3,16.1,3.1,19.7,3.6C369.7,458.7,366.5,457.9,361.8,455.9z"/>
<path class="st1" d="M396.8,423.9c-5-1.3-11.6-3.5-17.1-4.9c-5.5-1.4-9.9-2-30.5-6.5c-20.6-4.5-57.5-13-82.1-19
	c-24.7-6-37.1-9.5-44-10.7c-6.8-1.2-8-0.1-8.1,1.3c-0.1,1.4,0.8,3.2,0,3.9c-0.9,0.8-3.5,0.6-5.3-0.8c-1.8-1.4-2.8-4-2.2-5.9
	c0.6-1.9,2.9-2.9,5.4-2.8c2.5,0.1,5.2,1.5,5.4,1.9c0.2,0.4-2-0.2-3.4,0.8c-1.4,1-2,3.6-1,5.1c1,1.5,3.5,1.9,30.4,7.9
	c26.9,6,78.2,17.4,104.3,23.5c26.1,6.1,27.1,6.7,32.9,7.2c5.8,0.4,16.4,0.6,20,0.6C405,425.5,401.7,425.2,396.8,423.9z"/>
<path class="st1" d="M345.5,394.2c0.9,0.5,1.8,1,2.1,1.4c0.3,0.4,0.1,0.8-0.1,1s-0.1,0.2-1.2,0.2c-1.1,0-3.2,0-5.2-0.3
	c-1.9-0.3-3.6-0.8-4.2-1.6c-0.6-0.8-0.2-1.8,0.9-2.8c1.2-1,3.1-1.8,7.6-2.8c4.5-0.9,11.5-1.9,25.2-3.5c13.7-1.6,34-3.9,44.6-5
	c10.6-1,11.3-0.8,12.3-1.1c0.9-0.3,2-1,3.1-1c1.1,0,2.1,0.7,3.3,0.5c1.2-0.1,2.7-1,4.9-1.4c2.2-0.4,5.2-0.2,7-0.1
	c1.9,0.1,2.6,0.2,3.1,0c0.5-0.2,0.6-0.7,1.4-1.1c0.8-0.4,2.3-0.6,3.4,0.1c1.1,0.7,2,2.3,2.1,3.5c0.2,1.2-0.3,2-1,2.6
	c-0.8,0.6-1.8,0.9-2.7,1c-0.9,0.1-1.6,0-2.1-0.3c-0.5-0.3-0.9-0.7-2.3-0.5c-1.4,0.2-3.9,0.9-5.8,1.5c-1.9,0.6-3.1,1-4.3,0.9
	c-1.2-0.1-2.2-0.7-3-0.8c-0.8-0.1-1.4,0.4-2.3,0.8c-0.9,0.4-2.1,0.7-2.9-0.1c-0.8-0.8-1.2-2.7-1.2-3.7c0-1.1,0.3-1.3,1-1.6
	c0.7-0.2,1.9-0.4,2.8,0.2c0.9,0.6,1.7,2,1.3,3.1c-0.4,1.1-1.8,1.9-2.9,2.3c-1.1,0.3-2,0.2-3,0.4c-1.1,0.2-2.3,0.8-4.3,1.2
	c-2,0.4-4.7,0.7-15.7,2c-11,1.3-30.3,3.8-40.9,4.6c-10.6,0.8-12.6,0-14.7-0.8c-2.1-0.9-4.4-1.8-6-2.1c-1.6-0.3-2.4,0.1-2.7,0.7
	c-0.3,0.6-0.1,1.3,0.5,1.8C344.4,394,345.6,394.2,345.5,394.2c-0.1,0-1.6-0.1-2.5-0.6c-0.9-0.5-1.3-1.3-1-2c0.3-0.7,1.2-1.4,2.5-1.6
	c1.4-0.2,3.2,0.1,5.4,0.7c2.2,0.7,4.7,1.8,6,2.5c1.4,0.7,1.6,1,1.9,1.3"/>
<path class="st1" d="M192.8,130.3c1.2-0.1,2.3-0.3,2.9,2.4c0.6,2.7,0.6,8.1-3.7,14.7c-4.3,6.5-12.9,14.1-16.5,23.5
	c-3.7,9.5-2.5,20.8,1.3,26.8c3.8,6,10.3,6.7,15.4,3.8c5.1-2.9,8.8-9.4,6.7-13.1c-2.1-3.7-9.9-4.5-11,1.5c-1.1,6,4.6,18.8-8.5,34.6
	c-13.1,15.8-45,34.5-55.6,50.8c-10.6,16.3,0.1,30.3,9.2,37.4c9,7.1,16.3,7.2,23.6,7.4"/>
<g>
	<path class="st2" d="M214.5,81.1c0.8,0,1.6,0,2.4,0.1c0.8,0.1,1.6,0.2,2.4,0.3c1.3,0.2,2.5,0.6,3.5,1.1c1,0.5,1.9,1.3,2.5,2.2
		c0.3,0.5,0.5,0.9,0.4,1.4s-0.1,0.8-0.3,1.1c-0.2,0.3-0.4,0.4-0.7,0.5c-0.3,0-0.5-0.1-0.7-0.5c-0.7-1.2-1.5-2.2-2.5-2.8
		c-1-0.7-2.1-1.2-3.3-1.5c-1.1-0.3-2.3-0.5-3.4-0.6c-1.1-0.1-2.3-0.1-3.5,0c-0.9,0.1-1.8,0.2-2.7,0.3c-0.9,0.1-1.8,0.3-2.8,0.4
		c-0.1,0.2-0.3,0.7-0.7,1.5c-0.4,0.8-0.9,1.9-1.6,3.3c-0.6,1.3-1.4,2.9-2.2,4.7c-0.8,1.8-1.6,3.6-2.5,5.6c-0.8,2-1.7,4.1-2.5,6.2
		c-0.8,2.1-1.6,4.3-2.2,6.4c-0.3,1.8-0.6,3.6-1,5.4c-0.4,1.8-0.9,3.6-1.4,5.3c-0.1,1.5-0.1,2.8,0.1,4c0.2,1.2,0.5,2.2,1,3.1
		c0.3,0.3,0.5,0.6,0.6,0.9c0.1,0.3,0.1,0.5,0,0.7c-0.1,0.2-0.2,0.4-0.5,0.5c-0.2,0.1-0.5,0.1-0.7,0.1c-0.3-0.1-0.5-0.2-0.8-0.5
		c-0.3-0.2-0.5-0.6-0.7-1.1c-0.2-0.4-0.4-1-0.5-1.8c-0.1-0.7-0.1-1.6-0.1-2.6c0-1,0.2-2.1,0.3-3.2c0.2-1.2,0.4-2.5,0.7-3.8
		c0.2-1,0.4-2,0.7-3c0.2-1,0.5-2.1,0.8-3.2c0.5-2.8,0.8-5.4,0.9-7.9c0.1-2.4,0.1-4.6-0.2-6.7c-0.3-2-0.8-3.9-1.5-5.5
		c-0.7-1.7-1.7-3.1-2.9-4.5c-0.3-0.4-0.7-0.7-1.1-0.8c-0.4-0.2-0.8-0.4-1.3-0.5c-0.4-0.1-0.9-0.2-1.3-0.3c-0.4-0.1-0.9-0.2-1.3-0.4
		c-0.8-0.3-1.2-0.6-1.4-1.1c-0.2-0.4-0.2-0.8,0-1.1c0.2-0.3,0.5-0.5,0.9-0.6c0.4-0.1,0.9,0,1.3,0.4c0.9,0.8,2,1.3,3.3,1.5
		c1.3,0.2,2.7,0.2,4.3,0.1c1.6-0.1,3.2-0.4,5-0.8c1.8-0.4,3.6-0.8,5.6-1.1c0.1-0.2,0.1-0.3,0.2-0.5c0.1-0.2,0.2-0.3,0.2-0.5
		c0.2-0.5,0.6-0.9,0.9-1.1c0.4-0.2,0.8-0.3,1.1-0.3c0.3,0,0.6,0.2,0.8,0.5c0.2,0.3,0.2,0.7,0.1,1.2c1.4-0.2,2.7-0.4,4.1-0.6
		C211.7,81.1,213.1,81.1,214.5,81.1L214.5,81.1z M194.8,103.6c0.6-1.8,1.1-3.5,1.7-5.3c0.6-1.8,1.2-3.5,1.9-5.2
		c0.6-1.7,1.3-3.3,1.9-4.9c0.7-1.6,1.3-3.1,2-4.5c-1.2,0.2-2.4,0.5-3.6,0.7c-1.2,0.2-2.3,0.4-3.5,0.6c-1.1,0.2-2.3,0.3-3.4,0.4
		c-1.1,0.1-2.2,0.1-3.2,0.1c1.2,0.8,2.1,1.8,2.9,3.1c0.8,1.2,1.4,2.6,1.9,4.2c0.5,1.6,0.8,3.2,1,5.1
		C194.8,99.7,194.8,101.6,194.8,103.6L194.8,103.6z M203.3,104.8c-0.5,0.7-0.9,1.4-1.2,2.3c-0.3,0.8-0.5,1.6-0.5,2.4
		c0,0.7,0.2,1.4,0.7,2c0.4,0.6,1.1,1,2.1,1.3c0.8,0.2,1.6,0.2,2.4,0.1c0.8-0.1,1.7-0.3,2.6-0.6c0.9-0.3,1.7-0.6,2.6-1.1
		c0.8-0.4,1.6-0.9,2.4-1.4c0.7-0.5,1.4-1,2.1-1.6c0.6-0.5,1.2-1.1,1.6-1.6c0.3-0.3,0.5-0.6,0.5-0.8c0-0.2,0-0.4-0.2-0.4
		c-0.1-0.1-0.3-0.1-0.5,0c-0.2,0.1-0.4,0.3-0.6,0.5c-0.1,0.1-0.4,0.4-0.8,0.8s-1,0.8-1.6,1.3c-0.6,0.5-1.4,1-2.1,1.5
		c-0.8,0.5-1.6,0.9-2.4,1.3c-0.8,0.4-1.6,0.6-2.3,0.7c-0.7,0.1-1.4,0.1-2-0.2c-0.6-0.2-0.9-0.6-1.1-1c-0.2-0.4-0.3-0.9-0.3-1.5
		c0-0.5,0.1-1.1,0.2-1.6c0.2-0.5,0.3-1,0.5-1.4c0.6,0,1.2,0,1.8-0.2c0.6-0.1,1.1-0.3,1.6-0.6c0.5-0.2,0.8-0.5,1.1-0.8
		c0.3-0.3,0.4-0.7,0.3-1c0-0.3-0.2-0.6-0.4-0.9c-0.3-0.3-0.6-0.4-1.1-0.6c-0.5-0.1-1.1-0.1-1.5,0.1c-0.5,0.1-1,0.4-1.4,0.7
		c-0.4,0.3-0.8,0.6-1.2,1C203.9,104.1,203.5,104.5,203.3,104.8L203.3,104.8z M207.7,103c-0.1-0.1-0.1-0.2-0.2-0.2
		c-0.1,0-0.2,0.1-0.4,0.2c-0.2,0.1-0.4,0.4-0.6,0.7c-0.2,0.3-0.5,0.7-0.8,1.3c0.3,0,0.5,0,0.8-0.2c0.3-0.1,0.5-0.3,0.7-0.5
		c0.2-0.2,0.3-0.4,0.4-0.7C207.7,103.4,207.8,103.2,207.7,103L207.7,103z M224.2,108.1c0.5-0.1,0.8-0.3,0.9-0.6
		c0.1-0.3,0.1-0.6,0-0.8c-0.1-0.3-0.4-0.4-0.7-0.5c-0.4-0.1-0.8,0-1.3,0.3c-0.5,0.3-1.1,0.7-1.8,1.2c-0.6,0.5-1.3,0.9-1.9,1.5
		c0.1-0.6,0.2-1.2,0.4-1.9c0.2-0.7,0.3-1.4,0.5-2.1c0.1-0.5,0.1-0.8-0.1-1.1c-0.1-0.3-0.4-0.5-0.7-0.5c-0.3-0.1-0.6,0-1,0.2
		c-0.4,0.2-0.7,0.5-0.9,1c-0.3,0.4-0.5,0.9-0.6,1.5c-0.1,0.6-0.2,1.1-0.2,1.7c0,0.6,0,1.2,0.1,1.7c0.1,0.6,0.2,1.1,0.4,1.6
		c-0.7,0.8-1.3,1.6-1.7,2.5c-0.4,0.9-0.7,1.8-0.6,2.7c0,0.3,0.1,0.6,0.2,0.7c0.2,0.2,0.3,0.2,0.5,0.2c0.2,0,0.4-0.1,0.5-0.3
		c0.1-0.2,0.2-0.5,0.2-0.8c0.1-0.8,0.3-1.6,0.5-2.2c0.2-0.7,0.5-1.3,0.8-1.8c0.4,0.6,0.9,1.1,1.4,1.4c0.6,0.3,1.2,0.4,1.8,0.4
		c0.6,0,1.3-0.1,1.9-0.3c0.6-0.2,1.2-0.4,1.7-0.7c0.7-0.4,1.4-0.8,2.1-1.4c0.7-0.5,1.4-1.1,2-1.7c0.7-0.6,1.3-1.2,1.8-1.8
		c0.5-0.6,1-1.1,1.4-1.5c0.3-0.3,0.4-0.5,0.4-0.8c0-0.2,0-0.4-0.2-0.4c-0.1-0.1-0.3-0.1-0.5,0c-0.2,0.1-0.4,0.2-0.6,0.5
		c-0.3,0.4-0.7,0.8-1.2,1.3c-0.5,0.5-1.1,1.1-1.7,1.6c-0.6,0.6-1.3,1.1-1.9,1.6c-0.7,0.5-1.3,1-1.9,1.3c-0.5,0.3-1,0.5-1.5,0.7
		c-0.5,0.2-1.1,0.3-1.5,0.3c-0.5,0-0.9-0.2-1.2-0.5c-0.4-0.3-0.6-0.9-0.6-1.7c0-0.1,0-0.2,0-0.4c0.7-0.6,1.4-1.1,2.2-1.4
		C222.4,108.6,223.2,108.3,224.2,108.1L224.2,108.1z M219.3,95c-0.3-0.5-0.6-0.8-0.8-0.8c-0.3-0.1-0.5,0-0.6,0.1
		c-0.1,0.2-0.2,0.4-0.2,0.6c0,0.3,0.2,0.5,0.6,0.6c0.5,0.1,1.2,0.3,2,0.4c0.8,0.1,1.7,0.2,2.8,0.2c1.8,0.1,3.5,0.1,5.3,0.1
		c1.7,0,3.4-0.1,5.1-0.2c-0.6,2.2-1.2,4.5-1.8,6.8c-0.5,2.3-1,4.6-1.3,6.8c-0.4,2.2-0.6,4.3-0.8,6.3c-0.2,2-0.2,3.8-0.2,5.3
		c0,1.5,0.2,2.8,0.5,3.9c0.3,1.1,0.8,2,1.3,2.6c0.4,0.4,0.8,0.6,1.2,0.6c0.4,0,0.7,0,0.9-0.2c0.2-0.1,0.3-0.3,0.3-0.6
		c0-0.2-0.2-0.5-0.5-0.7c-0.9-0.5-1.6-1.3-2.1-2.2c-0.4-0.9-0.7-2.1-0.7-3.6c0-0.9,0-2,0.1-3.1c0.1-1.2,0.3-2.4,0.5-3.6
		c0.2-1.3,0.5-2.5,0.8-3.8c0.3-1.3,0.6-2.5,1-3.7c0.4-1.2,0.7-2.3,1.1-3.4c0.4-1.1,0.7-2,1-2.8c0.5-0.7,1-1.5,1.5-2.4
		c0.6-0.9,1.1-1.8,1.7-2.7c0.1,0,0.1,0,0.2,0c1.2-0.1,2.4-0.3,3.8-0.5c1.4-0.2,2.8-0.4,4.2-0.5c1.4-0.1,2.8-0.3,4.2-0.3
		c1.4-0.1,2.6,0,3.7,0.1c1,0.1,1.8,0.3,2.6,0.6c0.7,0.3,1.2,0.8,1.5,1.3c0.2,0.4,0.4,0.6,0.7,0.7c0.3,0.1,0.6,0,0.8-0.1
		c0.2-0.1,0.4-0.3,0.5-0.6c0.1-0.2,0-0.5-0.2-0.7c-0.6-0.5-1.4-0.9-2.4-1.2c-1-0.3-2-0.5-3.2-0.7c-1.2-0.1-2.5-0.2-3.9-0.2
		c-1.4,0-2.7,0.1-4.1,0.1s-2.7,0.2-4,0.3c-1.3,0.1-2.5,0.2-3.6,0.4c0.6-1.1,1.2-2.1,1.8-3.2c0.6-1.1,1.1-2.1,1.6-3.1
		c0.5-1,0.8-2,1.2-2.9c0.3-0.9,0.5-1.8,0.6-2.6c0.1-0.9,0-1.6-0.2-2.1c-0.3-0.5-0.6-0.8-1-0.9c-0.4-0.1-0.9,0-1.4,0.2
		c-0.5,0.2-1,0.6-1.3,1.1c-0.6,0.7-1.1,1.5-1.6,2.5c-0.5,1-1.1,2.1-1.6,3.3c-0.5,1.2-1,2.5-1.5,3.9c-0.5,1.4-1,2.8-1.4,4.3
		c-1.9,0.2-3.7,0.4-5.6,0.5c-1.9,0.1-3.7,0.1-5.5,0c-0.5,0-1.1-0.1-1.6-0.1C220.5,95.2,219.9,95.1,219.3,95L219.3,95z M239.6,86.4
		c0.6-1,1-1.8,1.4-2.3c0.4-0.5,0.7-0.8,0.9-0.8c0.2,0,0.2,0.3,0.1,0.9c-0.1,0.6-0.4,1.4-0.9,2.6c-0.5,1.2-1.1,2.5-1.8,3.8
		c-0.7,1.3-1.4,2.6-2.1,3.9l-0.8,0.1c0.4-1.5,0.9-2.9,1.5-4.3C238.4,88.9,239,87.6,239.6,86.4L239.6,86.4z M236.5,95.7l-0.8,1.4
		c0.1-0.2,0.1-0.4,0.2-0.7c0.1-0.2,0.1-0.4,0.2-0.7c0.1,0,0.1,0,0.2,0C236.3,95.7,236.4,95.7,236.5,95.7L236.5,95.7z M239,104.6
		c0.3-0.3,0.7-0.5,1-0.6c0.3-0.1,0.6-0.1,0.9,0c0.2,0.1,0.4,0.2,0.6,0.4c0.1,0.2,0.1,0.5,0,0.8c-0.3,0.9-0.5,1.8-0.6,2.4
		c-0.1,0.7-0.1,1.2,0.1,1.7c0.1,0.5,0.3,0.8,0.6,1.1c0.3,0.3,0.6,0.4,1,0.5c0.7,0.1,1.5,0.1,2.4-0.2c0.9-0.3,1.8-0.7,2.8-1.2
		c0.9-0.5,1.8-1.1,2.6-1.7c0.8-0.6,1.5-1.3,2-1.9c0.2-0.3,0.4-0.4,0.6-0.5c0.2-0.1,0.4-0.1,0.5,0c0.1,0.1,0.2,0.2,0.2,0.4
		c0,0.2-0.2,0.5-0.4,0.8c-0.6,0.7-1.3,1.4-2.2,2.1c-0.9,0.7-1.8,1.3-2.8,1.8c-1,0.5-2,0.9-3.1,1.2c-1.1,0.3-2.1,0.4-3.1,0.2
		c-0.8-0.1-1.5-0.4-2.1-0.9c-0.6-0.5-1-1.1-1.2-1.8c-0.3-0.7-0.4-1.5-0.3-2.3C238.4,106.2,238.7,105.4,239,104.6L239,104.6z
		 M240.2,101.1c0.1-0.3,0.2-0.6,0.4-0.9c0.2-0.3,0.4-0.5,0.7-0.6c0.2-0.2,0.5-0.3,0.7-0.3c0.2,0,0.4,0,0.5,0.2
		c0.1,0.2,0.2,0.4,0.1,0.8c0,0.4-0.2,0.9-0.5,1.5c-0.2,0.3-0.4,0.5-0.7,0.6c-0.3,0.1-0.5,0.1-0.8,0.1c-0.2-0.1-0.4-0.2-0.6-0.4
		C240.1,101.8,240.1,101.5,240.2,101.1L240.2,101.1z M254.9,105.1c-0.2,0.5-0.5,1.2-0.9,2.2c-0.4,1-0.7,2.1-1.1,3.3
		c-0.4,1.2-0.7,2.5-1,3.8c-0.3,1.3-0.5,2.5-0.5,3.6c-0.1,1.1,0,2.1,0.3,2.9c0.2,0.8,0.7,1.3,1.4,1.5c0.5,0.1,1,0.1,1.6-0.2
		c0.6-0.3,1.2-0.7,1.9-1.3c0.7-0.6,1.4-1.3,2.1-2.1c0.7-0.8,1.4-1.7,2.2-2.7c0.7-0.9,1.4-1.9,2.1-2.9c0.7-1,1.3-2,1.9-3
		c0.4-0.7,0.8-1.4,1.3-2.1c0.4-0.7,0.8-1.4,1.3-2c0.2-0.3,0.4-0.5,0.6-0.6c0.2-0.1,0.4-0.1,0.5,0c0.1,0.1,0.2,0.3,0.1,0.5
		c0,0.2-0.1,0.5-0.4,0.9c-0.5,0.7-0.9,1.4-1.4,2.2c-0.5,0.8-0.9,1.5-1.4,2.3c-0.9,1.5-1.8,2.9-2.9,4.3c-1.1,1.4-2.2,2.7-3.4,3.8
		c-1.2,1.1-2.3,2-3.3,2.7c-1.1,0.7-2,0.9-2.8,0.8c-0.7-0.1-1.3-0.4-1.8-0.8c-0.4-0.5-0.7-1.1-0.9-1.8c-0.2-0.7-0.3-1.6-0.2-2.5
		c0-0.9,0.1-1.9,0.3-3c0.1-1.1,0.3-2.1,0.6-3.2c0.2-1.1,0.5-2.1,0.8-3.1c0.4-1.5,0.9-3.1,1.3-4.6c0.5-1.6,1-3.1,1.5-4.6
		c0.5-1.5,1.1-2.9,1.7-4.3c0.6-1.4,1.2-2.7,1.7-3.8c0.6-1.2,1.2-2.2,1.8-3.1c0.6-0.9,1.1-1.7,1.7-2.2c0.5-0.5,0.9-0.8,1.5-1
		c0.5-0.2,1-0.2,1.4-0.1c0.4,0.1,0.7,0.4,0.9,0.9c0.2,0.5,0.2,1.2,0.1,2.1c-0.1,0.8-0.4,1.7-0.8,2.7c-0.4,1-0.9,2-1.4,3
		c-0.6,1-1.2,2.1-1.9,3.2c-0.7,1.1-1.4,2.1-2.1,3.2c-0.7,1-1.4,2-2.1,3C256.2,103.4,255.5,104.3,254.9,105.1L254.9,105.1z
		 M260.7,91.2c0.6-1,1.2-1.7,1.6-2.2c0.4-0.5,0.7-0.7,0.9-0.7c0.2,0,0.2,0.3,0,0.9c-0.2,0.6-0.5,1.4-1.1,2.5
		c-0.4,0.8-0.9,1.6-1.3,2.5c-0.5,0.8-1,1.7-1.5,2.6c-0.5,0.9-1.1,1.7-1.6,2.5c-0.6,0.8-1.1,1.6-1.6,2.4c0.6-1.9,1.4-3.7,2.1-5.5
		C259,94.2,259.8,92.6,260.7,91.2L260.7,91.2z M268,104.8c-0.5,0.7-0.9,1.4-1.2,2.3c-0.3,0.8-0.5,1.6-0.5,2.4c0,0.7,0.2,1.4,0.7,2
		c0.4,0.6,1.1,1,2.1,1.3c0.8,0.2,1.6,0.2,2.4,0.1c0.8-0.1,1.7-0.3,2.6-0.6c0.9-0.3,1.7-0.6,2.6-1.1c0.8-0.4,1.6-0.9,2.4-1.4
		c0.7-0.5,1.4-1,2.1-1.6c0.6-0.5,1.2-1.1,1.6-1.6c0.3-0.3,0.5-0.6,0.5-0.8c0-0.2,0-0.4-0.2-0.4c-0.1-0.1-0.3-0.1-0.5,0
		c-0.2,0.1-0.4,0.3-0.6,0.5c-0.1,0.1-0.4,0.4-0.8,0.8s-1,0.8-1.6,1.3c-0.6,0.5-1.4,1-2.1,1.5c-0.8,0.5-1.6,0.9-2.4,1.3
		c-0.8,0.4-1.6,0.6-2.3,0.7c-0.7,0.1-1.4,0.1-2-0.2c-0.6-0.2-0.9-0.6-1.1-1s-0.3-0.9-0.3-1.5c0-0.5,0.1-1.1,0.2-1.6
		c0.2-0.5,0.3-1,0.5-1.4c0.6,0,1.2,0,1.8-0.2c0.6-0.1,1.1-0.3,1.6-0.6c0.5-0.2,0.8-0.5,1.1-0.8c0.3-0.3,0.4-0.7,0.3-1
		c0-0.3-0.2-0.6-0.4-0.9c-0.3-0.3-0.6-0.4-1.1-0.6c-0.5-0.1-1.1-0.1-1.5,0.1c-0.5,0.1-1,0.4-1.4,0.7c-0.4,0.3-0.8,0.6-1.2,1
		C268.6,104.1,268.3,104.5,268,104.8L268,104.8z M272.4,103c0.1,0.2,0.1,0.4,0,0.6c-0.1,0.2-0.2,0.5-0.4,0.7
		c-0.2,0.2-0.4,0.4-0.7,0.5c-0.3,0.1-0.5,0.2-0.8,0.2c0.3-0.6,0.6-1,0.8-1.3c0.2-0.3,0.4-0.5,0.6-0.7c0.2-0.1,0.3-0.2,0.4-0.2
		C272.3,102.8,272.4,102.9,272.4,103L272.4,103z M328.3,123.9c-0.5-1-0.8-2.2-0.9-3.5c-0.1-1.3,0-2.6,0.2-4c0.2-1.4,0.5-2.7,0.9-4
		c0.4-1.3,0.8-2.5,1.2-3.6c0.3-0.9,0.6-1.7,0.9-2.5c0.3-0.8,0.6-1.7,0.8-2.5c0.2-0.9,0.4-1.8,0.6-2.7s0.3-1.9,0.4-3
		c0.1-0.7,0.1-1.3,0-1.9c-0.1-0.5-0.3-0.9-0.6-1.2c-0.3-0.3-0.7-0.4-1.2-0.3c-0.5,0-1.2,0.3-2,0.8c-1,0.6-2,1.3-3,2.3
		c-1,0.9-1.9,2-2.9,3.1c-0.9,1.1-1.8,2.4-2.6,3.7c-0.8,1.3-1.6,2.6-2.3,3.9c-0.3,0.6-0.7,1.3-1,1.9c-0.3,0.7-0.7,1.4-0.9,2.1
		c-0.3,0.7-0.5,1.4-0.7,2.1c-0.2,0.7-0.3,1.4-0.4,2.2c0,0.5-0.2,1-0.3,1.3c-0.2,0.3-0.4,0.5-0.6,0.6c-0.2,0.1-0.4,0-0.6-0.3
		c-0.2-0.3-0.2-0.7-0.2-1.4c0.1-1.2,0.3-2.6,0.8-4.2c0.4-1.7,0.9-3.4,1.5-5.4c0.5-1.5,1-3.2,1.5-4.8c0.5-1.7,1-3.4,1.5-5
		c0.5-1.7,0.9-3.3,1.2-5c0.3-1.6,0.6-3.2,0.7-4.7c0.1-1.3,0.1-2.3,0.1-3.1c-0.1-0.8-0.2-1.4-0.5-1.9c-0.2-0.5-0.5-0.8-0.9-0.9
		c-0.4-0.2-0.8-0.2-1.2-0.2c-0.6,0-1.3,0.2-2.1,0.6c-0.8,0.4-1.6,0.8-2.4,1.5c-0.8,0.6-1.7,1.4-2.5,2.3c-0.9,0.9-1.7,1.9-2.5,3
		c-1.6,2.2-3.1,4.6-4.6,7.2c-1.5,2.6-2.9,5.2-4.1,7.9c-1.3,2.7-2.4,5.4-3.3,8.2c-0.9,2.7-1.6,5.4-2.1,8c-0.3,1.6-0.5,3-0.6,4.4
		c-0.1,1.4-0.2,2.6-0.1,3.7c0.1,1.1,0.2,2,0.5,2.8c0.3,0.7,0.7,1.3,1.2,1.6c0.3,0.2,0.5,0.4,0.4,0.7c0,0.3-0.2,0.5-0.4,0.6
		c-0.2,0.2-0.5,0.2-0.9,0.2c-0.4,0-0.7-0.3-1-0.7c-0.3-0.4-0.6-1.1-0.7-2c-0.1-0.9-0.2-2-0.2-3.2c0-1.2,0.1-2.6,0.2-4.2
		c0.1-1.5,0.3-3.1,0.6-4.8c0.4-2.9,1.1-5.8,2-8.9c0.9-3,2-6,3.2-8.9c1.3-2.9,2.7-5.7,4.3-8.3c1.6-2.6,3.3-5,5.1-7.1
		c0.9-1.1,1.9-2,2.9-2.9c1-0.9,2-1.6,2.9-2.2c1-0.6,1.9-1,2.8-1.2c0.9-0.2,1.7-0.3,2.4-0.1c0.5,0.1,1,0.4,1.4,0.7
		c0.4,0.4,0.7,0.8,1,1.4c0.3,0.6,0.4,1.4,0.5,2.2c0.1,0.9,0.1,1.9,0,3.1c-0.1,1.6-0.4,3.3-0.8,5.1c-0.4,1.7-0.8,3.5-1.2,5.2
		c-0.5,1.8-0.9,3.5-1.5,5.2c-0.5,1.7-1,3.4-1.4,5c0.8-1.4,1.6-2.7,2.6-4.1c0.9-1.4,1.9-2.7,3-3.9c1.1-1.2,2.1-2.3,3.3-3.3
		c1.1-1,2.2-1.7,3.3-2.3c1.1-0.5,2-0.8,2.9-0.9c0.9-0.1,1.6,0,2.2,0.3c0.6,0.3,1,0.9,1.2,1.7c0.2,0.8,0.1,1.9-0.3,3.2
		c-0.4,1.7-1,3.4-1.7,5.1c-0.7,1.7-1.4,3.6-2.2,5.7c-0.2,0.6-0.5,1.3-0.7,2c-0.2,0.8-0.5,1.6-0.7,2.4c-0.2,0.8-0.3,1.7-0.5,2.6
		c-0.1,0.9-0.1,1.7-0.1,2.6c0,0.8,0.2,1.6,0.4,2.4c0.2,0.7,0.6,1.4,1.1,2c0.4,0.5,0.6,0.9,0.5,1.3c-0.1,0.4-0.2,0.7-0.5,0.9
		c-0.3,0.2-0.7,0.2-1.1,0C329,125.2,328.6,124.7,328.3,123.9z"/>
	<path class="st2" d="M345.1,105.9c-0.2,0.2-0.5,0.5-0.8,0.9c-0.3,0.4-0.7,0.9-1.1,1.4c-0.4,0.5-0.8,1-1.3,1.6c-0.5,0.5-1,1-1.5,1.4
		c-0.5,0.4-1,0.6-1.5,0.8c-0.5,0.1-1,0.1-1.5-0.2c-0.4-0.2-0.7-0.6-0.9-1.1c-0.1-0.5-0.2-1.1-0.1-1.7c0.1-1.1,0.5-2.2,1.1-3.2
		c0.6-1,1.3-1.8,2.2-2.5c0.9-0.7,1.9-1.2,3-1.5c1.1-0.3,2.2-0.4,3.4-0.2c0.7,0.1,1.4,0.3,2,0.6c0.6,0.3,1.1,0.8,1.4,1.5
		c0.1,0.3,0.2,0.6,0.1,0.7c-0.1,0.2-0.2,0.3-0.4,0.3c-0.2,0-0.4,0-0.6-0.2c-0.2-0.1-0.4-0.4-0.5-0.7c-0.3-0.5-0.6-0.8-1-1.1
		c-0.4-0.2-0.8-0.4-1.2-0.4c-0.6-0.1-1.2,0.1-1.7,0.3c-0.6,0.3-1.2,0.6-1.7,1.1c-0.5,0.5-1,1-1.5,1.6c-0.4,0.6-0.8,1.2-1.1,1.9
		c-0.1,0.1-0.1,0.3-0.2,0.5c-0.1,0.2-0.2,0.5-0.2,0.7c-0.1,0.2-0.1,0.5-0.1,0.7c0,0.2,0,0.4,0.1,0.5c0.1,0.1,0.3,0.1,0.5-0.1
		c0.3-0.2,0.6-0.4,1-0.8c0.4-0.3,0.8-0.7,1.2-1.2c0.4-0.4,0.8-0.9,1.2-1.3c0.4-0.4,0.7-0.8,1-1.1c0.3-0.3,0.5-0.5,0.6-0.6
		c0.3-0.3,0.7-0.5,1-0.6c0.3-0.1,0.6-0.1,0.9,0c0.2,0.1,0.4,0.2,0.6,0.4c0.1,0.2,0.1,0.5,0,0.8c-0.3,0.9-0.5,1.8-0.6,2.4
		c-0.1,0.7-0.1,1.2,0.1,1.7c0.1,0.5,0.3,0.8,0.6,1.1c0.3,0.3,0.6,0.4,1,0.5c0.7,0.1,1.5,0.1,2.4-0.2c0.9-0.3,1.8-0.7,2.8-1.2
		c0.9-0.5,1.8-1.1,2.6-1.7c0.8-0.6,1.5-1.3,2-1.9c0.2-0.3,0.4-0.4,0.6-0.5c0.2-0.1,0.4-0.1,0.5,0c0.1,0.1,0.2,0.2,0.2,0.4
		c0,0.2-0.2,0.5-0.4,0.8c-0.6,0.7-1.3,1.4-2.2,2.1c-0.9,0.7-1.8,1.3-2.8,1.8c-1,0.5-2,0.9-3.1,1.2c-1.1,0.3-2.1,0.4-3.1,0.2
		c-0.8-0.1-1.5-0.3-2.1-0.7c-0.6-0.4-1-0.8-1.2-1.4c-0.2-0.6-0.3-1.2-0.3-1.9C344.5,107.3,344.7,106.6,345.1,105.9L345.1,105.9z
		 M375,106.9c0.1-0.1,0.1-0.3,0.2-0.4c0-0.1,0-0.3-0.1-0.4c-0.1-0.1-0.2-0.2-0.3-0.2c-0.1,0-0.3,0-0.4,0.1c-1.2,0.4-2.5,0.9-3.8,1.5
		c-1.3,0.6-2.6,1.1-4,1.6c-1.3,0.5-2.7,0.9-4,1.2c-1.3,0.3-2.7,0.4-4,0.3c0.2-0.7,0.5-1.3,0.7-2c0.2-0.6,0.5-1.3,0.8-1.9
		c0.8-0.8,1.7-1.6,2.6-2.2c0.9-0.7,1.9-1.2,3-1.7c0.8-0.3,1.6-0.6,2.4-0.7c0.8-0.2,1.4-0.2,2-0.1c0.4,0,0.7-0.1,0.8-0.3
		c0.1-0.2,0.2-0.4,0.1-0.7c-0.1-0.2-0.3-0.5-0.6-0.6c-0.3-0.2-0.8-0.2-1.3-0.2c-0.4,0.1-0.9,0.2-1.5,0.5c-0.6,0.2-1.3,0.5-2,0.9
		c-0.6,0.3-1.2,0.7-1.9,1.2c-0.7,0.5-1.4,1-2.1,1.6c0.6-0.8,1.3-1.7,1.9-2.6c0.7-0.9,1.4-1.9,2-2.9c0.7-1,1.3-2,2-3
		c0.6-1,1.2-2,1.7-3c0.5-1,1-1.9,1.3-2.8c0.4-0.9,0.6-1.7,0.8-2.5c0.2-0.9,0.1-1.6-0.1-2.1c-0.2-0.5-0.5-0.8-0.9-0.9
		c-0.4-0.1-0.9-0.1-1.4,0.1c-0.5,0.2-1,0.5-1.5,1c-0.6,0.6-1.1,1.3-1.7,2.1c-0.6,0.9-1.1,1.9-1.7,3c-0.6,1.1-1.2,2.4-1.7,3.7
		c-0.6,1.3-1.1,2.7-1.6,4.1c-0.5,1.4-1,2.9-1.5,4.4c-0.5,1.5-0.9,3-1.3,4.5c-0.6,0.6-1.1,1.2-1.5,1.7c-0.4,0.5-0.6,0.9-0.6,1.2
		c0,0.3,0.1,0.6,0.3,0.7c0.2,0.2,0.5,0.3,0.8,0.4c-0.4,1.9-0.8,3.7-1,5.4c-0.2,1.7-0.4,3.2-0.4,4.4c0,1.5,0.1,2.8,0.3,3.9
		c0.2,1.1,0.6,2,1.2,2.6c0.4,0.4,0.8,0.6,1.1,0.7c0.4,0.1,0.7,0,0.9-0.1c0.2-0.1,0.4-0.3,0.4-0.6c0-0.2-0.1-0.5-0.5-0.7
		c-0.9-0.6-1.5-1.4-1.9-2.3c-0.4-1-0.5-2.2-0.5-3.7c0.1-1.6,0.3-3.2,0.6-4.8c0.3-1.6,0.8-3.2,1.3-4.8c0.8,0,1.7-0.2,2.7-0.4
		c1-0.2,2.1-0.5,3.2-0.7c1.1-0.3,2.2-0.6,3.4-1c1.1-0.4,2.2-0.7,3.2-1.1c1-0.3,1.8-0.7,2.6-1C374.1,107.3,374.7,107.1,375,106.9
		L375,106.9z M366.7,91.2c0.6-1,1.2-1.7,1.6-2.2c0.4-0.5,0.7-0.7,0.9-0.7c0.2,0,0.2,0.3,0,0.9c-0.2,0.6-0.5,1.4-1.1,2.5
		c-0.4,0.8-0.9,1.6-1.3,2.5c-0.5,0.8-1,1.7-1.5,2.6c-0.5,0.9-1.1,1.7-1.6,2.5c-0.6,0.8-1.1,1.6-1.6,2.4c0.6-1.9,1.4-3.7,2.1-5.5
		C365,94.2,365.8,92.6,366.7,91.2L366.7,91.2z M357.1,110.4l0.1-0.5c-0.1,0.1-0.1,0.2-0.2,0.2c-0.1,0.1-0.1,0.1-0.2,0.2L357.1,110.4
		L357.1,110.4z M375.1,104.8c0.3-0.4,0.6-0.7,0.9-1.1c0.4-0.4,0.8-0.7,1.2-1c0.4-0.3,0.9-0.5,1.4-0.7c0.5-0.1,1-0.2,1.5-0.1
		c0.5,0.1,0.9,0.3,1.1,0.6c0.3,0.3,0.4,0.5,0.4,0.9c0.1,0.4,0,0.7-0.3,1c-0.3,0.3-0.6,0.6-1.1,0.8c-0.5,0.2-1,0.4-1.6,0.6
		c-0.6,0.1-1.2,0.2-1.8,0.2c-0.2,0.4-0.4,0.9-0.5,1.4c-0.2,0.5-0.2,1.1-0.2,1.6c0,0.5,0.1,1,0.3,1.5c0.2,0.4,0.6,0.8,1.1,1
		c0.6,0.2,1.2,0.3,2,0.2c0.7-0.1,1.5-0.4,2.3-0.7c0.8-0.4,1.6-0.8,2.4-1.3c0.8-0.5,1.5-1,2.1-1.5c0.6-0.5,1.2-0.9,1.6-1.3
		s0.7-0.7,0.8-0.8c0.2-0.3,0.4-0.4,0.6-0.5c0.2-0.1,0.4-0.1,0.5,0c0.1,0.1,0.2,0.2,0.2,0.4s-0.2,0.5-0.5,0.8c-0.4,0.5-0.9,1-1.6,1.6
		c-0.6,0.5-1.3,1.1-2.1,1.6c-0.7,0.5-1.5,1-2.4,1.4c-0.8,0.4-1.7,0.8-2.6,1.1c-0.9,0.3-1.7,0.5-2.6,0.6c-0.8,0.1-1.7,0.1-2.4-0.1
		c-1-0.2-1.7-0.7-2.1-1.3c-0.4-0.6-0.6-1.3-0.7-2c0-0.7,0.1-1.5,0.5-2.4C374.2,106.3,374.6,105.5,375.1,104.8L375.1,104.8z
		 M379.5,103c-0.1-0.1-0.1-0.2-0.2-0.2c-0.1,0-0.2,0.1-0.4,0.2c-0.2,0.1-0.4,0.4-0.6,0.7c-0.2,0.3-0.5,0.7-0.8,1.3
		c0.3,0,0.5,0,0.8-0.2c0.3-0.1,0.5-0.3,0.7-0.5c0.2-0.2,0.3-0.4,0.4-0.7C379.5,103.4,379.5,103.2,379.5,103L379.5,103z M406.1,106.7
		c0.3-0.3,0.4-0.5,0.5-0.7c0-0.2,0-0.3-0.2-0.4c-0.1-0.1-0.3-0.1-0.5,0c-0.2,0.1-0.4,0.2-0.7,0.5c-0.3,0.3-0.6,0.7-1,1.1
		c-0.4,0.5-0.9,1-1.4,1.6c-0.5,0.6-1.1,1.2-1.7,1.8c-0.6,0.6-1.2,1.2-1.9,1.7c-0.6,0.5-1.3,1-1.9,1.4c-0.7,0.4-1.3,0.7-1.9,0.8
		c-0.3,0.1-0.5,0.1-0.8,0.1c-0.3,0-0.6,0-0.8-0.1c-0.2-0.1-0.4-0.2-0.6-0.4c-0.2-0.2-0.2-0.4-0.2-0.7c0-0.3,0.1-0.7,0.2-1
		c0.2-0.4,0.3-0.8,0.6-1.1c0.2-0.4,0.4-0.8,0.6-1.2c0.2-0.4,0.3-0.8,0.4-1.2c0.1-0.4,0.1-0.7-0.1-1.1c-0.1-0.3-0.4-0.6-0.8-0.9
		c-0.2-0.1-0.4-0.2-0.7-0.4c-0.3-0.1-0.6-0.3-0.9-0.4c-0.3-0.1-0.6-0.3-0.8-0.5c-0.2-0.2-0.4-0.3-0.4-0.5c0-0.1,0-0.1,0.1-0.2
		c0.1-0.1,0.2-0.2,0.4-0.3c0.1-0.1,0.3-0.2,0.4-0.3c0.1-0.1,0.1-0.3,0.1-0.4c0-0.2-0.1-0.3-0.2-0.4c-0.1-0.1-0.3-0.2-0.4-0.3
		c-0.2-0.1-0.4-0.1-0.6-0.1c-0.2,0-0.4,0.1-0.6,0.2c-0.5,0.3-0.9,0.7-1.1,1.2c-0.2,0.5-0.2,0.9-0.2,1.3c0.1,0.4,0.2,0.7,0.5,0.9
		c0.3,0.3,0.6,0.5,0.9,0.7c0.3,0.2,0.7,0.3,1.1,0.4c0.4,0.1,0.8,0.1,1.1,0c-0.3,0.4-0.6,0.9-0.9,1.5c-0.3,0.6-0.5,1.1-0.6,1.8
		c-0.1,0.6-0.2,1.2-0.1,1.8c0,0.6,0.2,1.2,0.6,1.7c0.5,0.6,1,1,1.7,1.1c0.7,0.2,1.3,0.2,2,0.1c0.7-0.1,1.5-0.4,2.2-0.8
		s1.5-0.9,2.2-1.4c0.7-0.5,1.4-1.1,2.1-1.8c0.7-0.6,1.3-1.2,1.9-1.9c0.6-0.6,1.1-1.2,1.5-1.7S405.8,107,406.1,106.7L406.1,106.7z
		 M421.2,106.9c-0.5,0.3-1.1,0.6-1.7,1c-0.7,0.4-1.4,0.8-2.1,1.3c-0.8,0.5-1.6,1-2.4,1.5c-0.9,0.5-1.7,1.1-2.6,1.7
		c0.8,1.2,1.1,2.4,0.9,3.8c-0.2,1.3-0.8,2.7-1.8,4.2c-0.5,0.8-1.1,1.5-1.7,2.2c-0.7,0.7-1.3,1.3-2,1.8c-0.7,0.5-1.4,0.9-2.1,1.3
		c-0.7,0.3-1.4,0.5-2,0.5c-0.5,0-1-0.1-1.4-0.2c-0.4-0.1-0.8-0.3-1.1-0.6c-0.3-0.3-0.5-0.6-0.7-1c-0.1-0.4-0.2-0.9-0.1-1.5
		c0.1-0.8,0.5-1.7,1.1-2.6c0.6-0.9,1.4-1.8,2.3-2.7c0.9-0.9,2-1.8,3.1-2.7c1.2-0.9,2.4-1.8,3.6-2.6c-0.4-0.4-0.9-0.8-1.6-1.1
		c-0.6-0.3-1.2-0.7-1.8-1.1c-0.6-0.4-1-0.8-1.4-1.3c-0.4-0.5-0.5-1.1-0.5-1.9c0-0.7,0.2-1.4,0.6-2c0.4-0.6,0.9-1.1,1.4-1.6
		c0.6-0.4,1.2-0.7,1.9-0.9c0.7-0.2,1.4-0.2,2.2,0c0.4,0.1,0.8,0.2,1,0.5c0.2,0.2,0.4,0.4,0.4,0.7c0.1,0.2,0.1,0.5,0,0.7
		c-0.1,0.2-0.2,0.4-0.4,0.5c-0.2,0.1-0.4,0.1-0.7,0.1c-0.3,0-0.6-0.2-0.9-0.5c-0.5-0.4-0.9-0.6-1.4-0.6c-0.4,0-0.8,0.1-1.2,0.3
		c-0.3,0.2-0.6,0.6-0.8,1c-0.2,0.5-0.2,1-0.2,1.5c0.1,0.6,0.2,1.1,0.6,1.5c0.3,0.5,0.7,0.9,1.1,1.3c0.4,0.4,0.9,0.8,1.4,1.2
		c0.5,0.4,0.9,0.7,1.3,1.1c1.7-1.1,3.4-2.1,4.9-3.1c1.6-0.9,2.9-1.7,4-2.3c0.3-0.2,0.6-0.3,0.8-0.3c0.2,0,0.4,0,0.5,0.2
		c0.1,0.1,0.1,0.3,0,0.5C421.7,106.5,421.5,106.7,421.2,106.9L421.2,106.9z M411.2,114.3c-0.1,0.6-0.4,1.4-0.8,2.2
		c-0.4,0.8-1.1,1.8-1.9,3c-0.4,0.6-0.8,1.1-1.3,1.6c-0.5,0.5-0.9,1-1.4,1.4c-0.5,0.4-0.9,0.8-1.3,1.1c-0.4,0.3-0.8,0.5-1.2,0.7
		c-0.4,0.1-0.7,0.2-0.9,0.1c-0.3-0.1-0.5-0.2-0.6-0.3c-0.2-0.2-0.3-0.4-0.3-0.7c0-0.3,0-0.6,0.1-0.9c0.2-0.6,0.6-1.3,1.2-2.1
		c0.6-0.7,1.3-1.5,2.2-2.3c0.9-0.8,1.8-1.6,2.9-2.4c1.1-0.8,2.2-1.6,3.3-2.4C411.2,113.5,411.2,113.9,411.2,114.3L411.2,114.3z
		 M429.3,109.6c0.8-0.3,1.5-0.6,2.3-0.8c0.8-0.2,1.6-0.5,2.4-0.7c0.8-0.2,1.5-0.4,2.3-0.5c0.7-0.2,1.4-0.3,2-0.5
		c0.2,0,0.3-0.1,0.4-0.3c0.1-0.2,0.2-0.4,0.1-0.5c0-0.2-0.1-0.3-0.3-0.4c-0.2-0.1-0.5-0.1-1,0.1c-1.1,0.4-2.3,0.7-3.5,1.1
		c-1.3,0.4-2.6,0.8-3.9,1.2c0.6-1.5,0.7-2.8,0.4-3.6c-0.3-0.9-1-1.3-2.1-1.1c-0.6,0.1-1.2,0.3-1.8,0.6c-0.6,0.4-1.1,0.8-1.6,1.3
		c-0.5,0.5-1,1.1-1.4,1.7c-0.4,0.6-0.8,1.2-1.2,1.7c-0.4,0.6-0.7,1.1-0.9,1.5c-0.3,0.5-0.5,0.8-0.6,1c0.7-1.8,1.5-3.5,2.2-5
		c0.7-1.5,1.4-2.7,1.9-3.6c0.2-0.3,0.2-0.5,0-0.8c-0.1-0.2-0.4-0.4-0.6-0.5c-0.3-0.1-0.6-0.1-1,0c-0.4,0.1-0.6,0.3-0.9,0.7
		c-1,1.5-1.9,3.3-2.6,5.2c-0.7,2-1.4,4-1.9,6.1c-0.5,2.1-0.9,4.2-1.2,6.2c-0.3,2-0.5,3.9-0.5,5.6c0,1.5,0.1,2.8,0.4,4
		c0.3,1.2,0.8,2.1,1.3,2.7c0.4,0.4,0.8,0.6,1.1,0.7c0.4,0.1,0.7,0,0.9-0.1c0.2-0.1,0.4-0.3,0.4-0.6s-0.1-0.5-0.5-0.7
		c-1.1-0.7-1.8-1.6-2.2-2.7c-0.4-1.1-0.6-2.3-0.6-3.7c0-1.1,0.2-2.4,0.5-3.6c0.3-1.3,0.7-2.5,1.2-3.8c0.5-1.3,1-2.5,1.6-3.7
		c0.6-1.2,1.2-2.3,1.9-3.3c0.7-1,1.3-1.9,2-2.7c0.7-0.8,1.3-1.4,1.8-1.8c0.5-0.4,0.9-0.6,1.2-0.6c0.3,0,0.5,0,0.6,0.2
		c0.1,0.2,0.2,0.4,0.2,0.8c0,0.3,0,0.7-0.1,1.1c-0.1,0.4-0.2,0.7-0.3,1.1c-0.1,0.4-0.2,0.6-0.3,0.8c-1.5,0.6-2.5,1.1-3.2,1.7
		c-0.6,0.5-1,1-1.1,1.3c-0.1,0.4,0.1,0.6,0.5,0.8c0.4,0.2,0.9,0.1,1.5,0c0.6-0.2,1.3-0.5,2.1-1.1C428,111.4,428.6,110.6,429.3,109.6
		L429.3,109.6z M445.3,105.9c-0.2,0.2-0.5,0.5-0.8,0.9c-0.3,0.4-0.7,0.9-1.1,1.4c-0.4,0.5-0.8,1-1.3,1.6c-0.5,0.5-1,1-1.5,1.4
		c-0.5,0.4-1,0.6-1.5,0.8c-0.5,0.1-1,0.1-1.5-0.2c-0.4-0.2-0.7-0.6-0.9-1.1c-0.1-0.5-0.2-1.1-0.1-1.7c0.1-1.1,0.5-2.2,1.1-3.2
		c0.6-1,1.3-1.8,2.2-2.5c0.9-0.7,1.9-1.2,3-1.5c1.1-0.3,2.2-0.4,3.4-0.2c0.7,0.1,1.4,0.3,2,0.6c0.6,0.3,1.1,0.8,1.4,1.5
		c0.1,0.3,0.2,0.6,0.1,0.7c-0.1,0.2-0.2,0.3-0.4,0.3c-0.2,0-0.4,0-0.6-0.2c-0.2-0.1-0.4-0.4-0.5-0.7c-0.3-0.5-0.6-0.8-1-1.1
		c-0.4-0.2-0.8-0.4-1.2-0.4c-0.6-0.1-1.2,0.1-1.7,0.3c-0.6,0.3-1.2,0.6-1.7,1.1c-0.5,0.5-1,1-1.5,1.6c-0.4,0.6-0.8,1.2-1.1,1.9
		c-0.1,0.1-0.1,0.3-0.2,0.5c-0.1,0.2-0.2,0.5-0.2,0.7c-0.1,0.2-0.1,0.5-0.1,0.7c0,0.2,0,0.4,0.1,0.5c0.1,0.1,0.3,0.1,0.5-0.1
		c0.3-0.2,0.6-0.4,1-0.8c0.4-0.3,0.8-0.7,1.2-1.2c0.4-0.4,0.8-0.9,1.2-1.3c0.4-0.4,0.7-0.8,1-1.1c0.3-0.3,0.5-0.5,0.6-0.6
		c0.3-0.3,0.7-0.5,1-0.6c0.3-0.1,0.6-0.1,0.9,0c0.2,0.1,0.4,0.2,0.6,0.4c0.1,0.2,0.1,0.5,0,0.8c-0.3,0.9-0.5,1.8-0.6,2.4
		c-0.1,0.7-0.1,1.2,0.1,1.7c0.1,0.5,0.3,0.8,0.6,1.1c0.3,0.3,0.6,0.4,1,0.5c0.7,0.1,1.5,0.1,2.4-0.2c0.9-0.3,1.8-0.7,2.8-1.2
		c0.9-0.5,1.8-1.1,2.6-1.7c0.8-0.6,1.5-1.3,2-1.9c0.2-0.3,0.4-0.4,0.6-0.5c0.2-0.1,0.4-0.1,0.5,0c0.1,0.1,0.2,0.2,0.2,0.4
		c0,0.2-0.2,0.5-0.4,0.8c-0.6,0.7-1.3,1.4-2.2,2.1c-0.9,0.7-1.8,1.3-2.8,1.8c-1,0.5-2,0.9-3.1,1.2c-1.1,0.3-2.1,0.4-3.1,0.2
		c-0.8-0.1-1.5-0.3-2.1-0.7c-0.6-0.4-1-0.8-1.2-1.4c-0.2-0.6-0.3-1.2-0.3-1.9C444.6,107.3,444.9,106.6,445.3,105.9L445.3,105.9z
		 M465.7,102.9c0,0.4,0,0.6,0.2,0.8c0.1,0.2,0.3,0.3,0.5,0.4c0.2,0,0.4,0,0.5-0.1c0.2-0.1,0.2-0.4,0.2-0.7c-0.1-0.7-0.4-1.2-0.8-1.6
		c-0.4-0.4-0.8-0.5-1.4-0.5c-1.1,0-2.1,0.3-3,0.9c-0.9,0.6-1.8,1.3-2.4,2.2c-0.7,0.9-1.2,1.8-1.6,2.8c-0.4,1-0.5,1.9-0.5,2.8
		c0,0.9,0.3,1.6,0.9,2c0.5,0.5,1.2,0.8,1.9,1c0.8,0.2,1.6,0.2,2.4,0.1c0.8-0.1,1.7-0.3,2.6-0.6c0.9-0.3,1.7-0.6,2.6-1.1
		c0.8-0.4,1.6-0.9,2.4-1.4c0.7-0.5,1.4-1,2.1-1.6c0.6-0.5,1.2-1.1,1.6-1.6c0.3-0.3,0.5-0.6,0.5-0.8s0-0.4-0.2-0.4
		c-0.1-0.1-0.3-0.1-0.5,0c-0.2,0.1-0.4,0.3-0.6,0.5c-0.1,0.1-0.4,0.4-0.8,0.8s-1,0.8-1.6,1.3c-0.6,0.5-1.4,1-2.1,1.5
		c-0.8,0.5-1.6,0.9-2.4,1.3c-0.8,0.4-1.6,0.6-2.3,0.7c-0.7,0.1-1.4,0.1-2-0.2c-0.4-0.2-0.8-0.5-1-0.8c-0.2-0.4-0.4-0.8-0.4-1.2
		c-0.1-0.6,0-1.3,0.2-2.1c0.2-0.8,0.5-1.5,0.9-2.2c0.4-0.7,0.9-1.4,1.4-1.9c0.5-0.6,1.1-0.9,1.7-1.1c0.3-0.1,0.6-0.1,0.8,0
		C465.5,102.2,465.7,102.5,465.7,102.9L465.7,102.9z M473.7,104.8c0.3-0.4,0.6-0.7,0.9-1.1c0.4-0.4,0.8-0.7,1.2-1
		c0.4-0.3,0.9-0.5,1.4-0.7c0.5-0.1,1-0.2,1.5-0.1c0.5,0.1,0.9,0.3,1.1,0.6c0.3,0.3,0.4,0.5,0.4,0.9c0.1,0.4,0,0.7-0.3,1
		c-0.3,0.3-0.6,0.6-1.1,0.8c-0.5,0.2-1,0.4-1.6,0.6c-0.6,0.1-1.2,0.2-1.8,0.2c-0.2,0.4-0.4,0.9-0.5,1.4c-0.2,0.5-0.2,1.1-0.2,1.6
		c0,0.5,0.1,1,0.3,1.5s0.6,0.8,1.1,1c0.6,0.2,1.2,0.3,2,0.2c0.7-0.1,1.5-0.4,2.3-0.7c0.8-0.4,1.6-0.8,2.4-1.3c0.8-0.5,1.5-1,2.1-1.5
		c0.6-0.5,1.2-0.9,1.6-1.3s0.7-0.7,0.8-0.8c0.2-0.3,0.4-0.4,0.6-0.5c0.2-0.1,0.4-0.1,0.5,0c0.1,0.1,0.2,0.2,0.2,0.4
		c0,0.2-0.2,0.5-0.5,0.8c-0.4,0.5-0.9,1-1.6,1.6c-0.6,0.5-1.3,1.1-2.1,1.6c-0.7,0.5-1.5,1-2.4,1.4c-0.8,0.4-1.7,0.8-2.6,1.1
		c-0.9,0.3-1.7,0.5-2.6,0.6c-0.8,0.1-1.7,0.1-2.4-0.1c-1-0.2-1.7-0.7-2.1-1.3c-0.4-0.6-0.6-1.3-0.7-2c0-0.7,0.1-1.5,0.5-2.4
		C472.8,106.3,473.2,105.5,473.7,104.8L473.7,104.8z M478.1,103c-0.1-0.1-0.1-0.2-0.2-0.2c-0.1,0-0.2,0.1-0.4,0.2
		c-0.2,0.1-0.4,0.4-0.6,0.7c-0.2,0.3-0.5,0.7-0.8,1.3c0.3,0,0.5,0,0.8-0.2c0.3-0.1,0.5-0.3,0.7-0.5c0.2-0.2,0.4-0.4,0.4-0.7
		C478.1,103.4,478.1,103.2,478.1,103z"/>
</g>
</svg>
