<?xml version="1.0" encoding="UTF-8"?><svg id="a" xmlns="http://www.w3.org/2000/svg" viewBox="0 0 381.11 379.61"><defs><style>.b,.c{fill:none;stroke:#000;stroke-linecap:round;stroke-linejoin:round;stroke-width:1.42px;}.c,.d{fill-rule:evenodd;}</style></defs><path class="b" d="m50.23,249.19c-.86,2.44-1.72,4.89-3.48,7.79-1.76,2.9-4.42,6.25-9.75,9.61-5.33,3.35-13.32,6.71-17.77,7.55-4.45.84-5.37-.83-5.76.6-.39,1.43-.27,5.96,2.01,8.22,2.28,2.26,6.72,2.26,12.93,1.13,6.21-1.13,14.2-3.4,18.74-4.88,4.53-1.48,5.61-2.17,5.42-.29-.19,1.88-1.64,6.34-4.4,8.56s-6.82,2.2-12.25,1.8-12.24-1.19-16.23-1.93c-3.99-.74-5.18-1.43-5.92-7-.74-5.57-1.04-16.03-1.13-22.29-.1-6.26,0-8.33.74-10.01.74-1.68,2.12-2.96,4.24-4.29,2.12-1.33,4.98-2.71,8.98-3.35,3.99-.64,9.12-.54,11.24.15,2.12.69,1.23,1.97-1.58,2.47-2.81.49-7.55.2-10.01-.39-2.47-.59-2.66-1.48.3-1.97,2.96-.49,9.07-.59,14.15.35,5.08.94,9.12,2.91,10.5,4.78,1.38,1.87.1,3.65-4.83,4.88-4.93,1.23-13.51,1.92-19.68,1.58-6.16-.35-9.91-1.73-11.93-2.52-2.02-.79-2.32-.99-.54.64,1.78,1.63,5.62,5.08,11.59,7.3,5.97,2.22,14.06,3.21,18.99,3.45,4.93.25,6.71-.25,7.5-2.86.79-2.61.59-7.35.64-8.68.05-1.33.35.74.1,4.24-.25,3.5-1.04,8.43-5.13,12.03-4.09,3.6-11.49,5.87-17.66,5.87s-11.1-2.27-14.01-5.47c-2.91-3.21-3.8-7.35-3.3-6.61.49.74,2.37,6.36,7.4,10.45,5.03,4.09,13.22,6.66,19.43,6.76,6.21.1,10.46-2.27,12.33-6.41,1.87-4.14,1.38-10.06,1.04-12.67-.35-2.61-.54-1.92-.2,2.66.35,4.59,1.23,13.07.79,18.69-.44,5.62-2.22,8.38-4.24,10.6-2.02,2.22-4.29,3.9-5.92,4.78-1.63.89-2.61.99-5.52,1.04-2.91.05-7.74.05-11.05-.39-3.3-.44-5.08-1.33-6.31-2.07-1.23-.74-1.92-1.33-2-2.26-.07-.93.47-2.19,5.97-3.46,5.51-1.26,15.97-2.52,25.81-1.85,9.84.67,19.05,3.26,30.97,2.46,11.92-.8,26.55-5.01,36.84-14.57,10.29-9.56,16.23-24.48,17.24-38.83,1.01-14.34-2.9-28.11-11.52-38.17-8.62-10.07-21.95-16.44-37.45-17.67-15.5-1.23-33.18,2.68-44.77,11.45-11.59,8.76-17.1,22.38-18.98,31.74-1.88,9.36-.15,14.47,8.76,10.48,8.91-3.98,24.99-17.06,32.16-27.94s5.43-19.57,8.04-23.56c2.61-3.98,9.56-3.26,15.28.51,5.72,3.77,10.21,10.58,9.13,23.4-1.09,12.82-7.75,31.66-14.92,43.82-7.17,12.17-14.85,17.67-19.54,20.09-4.69,2.41-6.38,1.73-1.67.93,4.71-.8,15.82-1.71,27.17-9.7,11.35-7.99,22.94-23.06,28.66-35.3,5.72-12.24,5.58-21.66,3.55-27.82-2.03-6.16-5.94-9.05-4.93-4.2,1.01,4.85,6.95,17.46,8.47,30.93,1.52,13.47-1.38,27.82-7.97,38.1-6.59,10.29-16.88,16.52-24.63,20.28-7.75,3.77-12.97,5.07-9.49,2.68,3.48-2.39,15.65-8.47,21.08-18.62,5.43-10.14,4.13-24.34-3.4-36.65-7.53-12.31-21.3-22.75-31.95-28.32-10.65-5.58-18.18-6.3-23.61-5.29-5.43,1.01-8.76,3.77-6.01,1.88,2.75-1.88,11.59-8.4,25.72-9.78,14.13-1.38,33.54,2.39,46.43,10.29,12.89,7.9,19.27,19.92,26.15,25.57,6.88,5.65,14.27,4.93,22.09,4.49,7.82-.43,16.08-.58,21.37-.58s7.61.14,8.04-.58c.43-.72-1.01-2.32-4.71-3.12s-9.63-.8-14.34-1.16c-4.71-.36-8.19-1.09-9.85-.36s-1.52,2.9-.72,3.84c.8.94,2.25.65,1.88-1.67-.36-2.32-2.54-6.66-1.74-8.76.8-2.1,4.56-1.96,5.94-.87,1.38,1.09.36,3.11-.8,3.62-1.16.51-2.46-.51-3.91-3.48-1.45-2.97-3.04-7.9-3.62-13.04-.58-5.14-.15-10.5,2.54-12.89,2.68-2.39,7.61-1.81,9.71-.29,2.1,1.52,1.38,3.98-.43,4.93-1.81.94-4.71.36-8.11-.15-3.4-.51-7.32-.94-8.84.14-1.52,1.09-.65,3.69-.29,8.62.36,4.93.22,12.17.51,16.66.29,4.49,1.01,6.23,1.74,6.52.72.29,1.45-.87,1.52-7.03.07-6.16-.51-17.31-1.09-24.85-.58-7.53-1.16-11.45,1.38-13.4,2.54-1.96,8.19-1.96,12.75-1.96s8.04,0,11.37-3.77c3.33-3.77,6.52-11.3,10.5-17.82,3.98-6.52,8.76-12.02,19.49-13.69,10.72-1.67,27.38.51,36.8,3.33,9.42,2.83,11.59,6.3,12.82,12.17,1.23,5.87,1.52,14.13,1.96,22.96.43,8.84,1.01,18.25-.22,25.14-1.23,6.88-4.27,11.23-9.05,13.4-4.78,2.17-11.3,2.17-22.96,1.88-11.66-.29-28.47-.87-43.97-1.23-15.5-.36-29.7-.51-37.02-.36-7.32.14-7.75.58-8.04,2.75-.29,2.17-.43,6.08.36,7.9.8,1.81,2.54,1.52,26.66,1.23s70.63-.58,93.3-1.23c22.67-.65,21.51-1.67,21.44-7.9-.07-6.23.94-17.68.94-32.67s-1.01-33.54-3.26-44.55c-2.25-11.01-5.72-14.49-12.89-16.15-7.17-1.67-18.04-1.52-38.9-1.38-20.86.14-51.72.29-70.55.51-18.83.22-25.64.51-28.54,1.74-2.9,1.23-1.88,3.4-1.59,11.37.29,7.97-.15,21.73.51,28.9.65,7.17,2.39,7.75,7.03,7.9,4.64.14,12.17-.14,13.91-.43,1.74-.29-2.32-.58-4.49.65-2.17,1.23-2.46,3.98-3.77,5.36-1.3,1.38-3.62,1.38-7.1,1.3-3.48-.07-8.11-.22-10.36-1.81-2.25-1.59-2.1-4.64-.51-5.94,1.59-1.3,4.64-.87,4.06-.72-.58.14-4.78,0-7.32-4.27s-3.4-12.68-3.84-21.51c-.43-8.84-.43-18.11.29-29.99s2.17-26.37,3.19-33.97c1.01-7.61,1.59-8.33,8.91-9.34,7.32-1.01,21.37-2.32,28.4-2.9,7.03-.58,7.03-.43,6.95,7.61-.07,8.04-.22,23.98-.14,31.08.07,7.1.36,5.36-.72,4.27s-3.55-1.52-4.71-7.32c-1.16-5.79-1.01-16.95-1.16-23.98-.14-7.03-.58-9.92,1.52-11.3,2.1-1.38,6.74-1.23,11.73-1.09,5,.14,10.36.29,13.18-.29,2.82-.58,3.11-1.88,3.26-3.91.14-2.03.14-4.78-.87-6.08-1.01-1.3-3.04-1.16-3.84.8-.8,1.96-.36,5.72.51,7.82.87,2.1,2.17,2.54,16.73,2.9,14.56.36,42.38.65,56.65.14s14.99-1.81,13.69-2.61c-1.3-.8-4.64-1.09-6.88-.58-2.25.51-3.4,1.81.87,2.75s13.98,1.52,23.11,1.88c9.13.36,17.67.51,21.3,0,3.62-.51,2.32-1.67,2.17-4.13-.14-2.46.87-6.23-.14-7.97-1.01-1.74-4.06-1.45-5.36.29s-.87,4.93-.14,7.46c.72,2.54,1.74,4.42,5,5.14,3.26.72,8.76.29,12.68.07,3.91-.22,6.23-.22,7.46-1.52,1.23-1.3,1.38-3.91-.29-5.43-1.67-1.52-5.14-1.96-6.59-.65-1.45,1.3-.87,4.35,2.61,6.09,3.48,1.74,9.85,2.17,14.7,2.32,4.85.14,8.18,0,9.42-1.45,1.23-1.45.36-4.2-1.74-5-2.1-.8-5.43.36-6.45,1.88-1.01,1.52.29,3.4,3.84,4.42,3.55,1.01,9.34,1.16,12.31,3.62,2.97,2.46,3.11,7.24,3.4,15.5.29,8.26.72,19.99,1.16,29.34.43,9.34.87,16.3,2.68,19.78,1.81,3.48,5,3.48,8.04,3.33,3.04-.14,5.94-.43,7.9-6.23,1.96-5.8,2.97-17.1,2.68-26.66-.29-9.56-1.88-17.39-5.14-20.93-3.26-3.55-8.19-2.83-11.37-2.46-3.19.36-4.64.36-4.56,4.56.07,4.2,1.67,12.6,2.68,37.81,1.01,25.21,1.45,67.22,1.3,92.94-.14,25.72-.87,35.13-1.88,41.43-1.01,6.3-2.32,9.49-17.75,12.02-15.43,2.54-44.98,4.42-79.25,5.65-34.26,1.23-73.23,1.81-95.71,1.94-22.48.13-28.46-.2-35.09-3.07-6.63-2.88-13.92-8.3-15.48-7.43-1.56.87,2.61,8.04,19.02,10.48,16.41,2.44,45.07.15,60.12-3.09,15.05-3.24,16.5-7.45,16.63-16.87.13-9.42-1.05-24.07,4.81-31.49s18.77-7.6,30.59-7.6c11.82,0,22.55.21,31.25-2.01,8.7-2.22,15.36-6.85,19.56-10.91,4.2-4.06,5.94-7.53,6.66-13.55.72-6.01.43-14.56,1.01-19.63s2.03-6.66,5.07-7.32c3.04-.65,7.68-.36,9.78,4.42,2.1,4.78,1.67,14.05.87,19.78-.8,5.72-1.96,7.9-5.14,9-3.18,1.11-8.39,1.15-11.72.42-3.33-.72-4.79-2.21-6.03-8.53-1.24-6.32-2.25-17.48-1.45-25.3.8-7.82,3.4-12.31,8.33-14.2,4.93-1.88,12.17-1.16,16.15,1.45,3.98,2.61,4.71,7.1,5.43,14.85.72,7.75,1.45,18.76,1.67,25.14.22,6.37-.07,8.11-2.32,8.98-2.25.87-6.45.87-6.01.51.43-.36,5.5-1.09,8.84-.65,3.33.43,4.93,2.03,6.52-1.59,1.59-3.62,3.19-12.46,3.12-21.59-.07-9.13-1.81-18.54-5.87-24.56-4.06-6.01-10.43-8.62-14.78-12.68-4.35-4.06-6.66-9.56-6.52-13.62.14-4.06,2.75-6.66,6.16-7.53,3.4-.87,7.61,0,11.23-3.11,3.62-3.11,6.66-10.21,4.71-15.79-1.96-5.58-8.91-9.63-15.79-9.78-6.88-.14-13.69,3.62-15.5,9.05-1.81,5.43,1.38,12.53,6.52,15.21,5.14,2.68,12.24.94,16.08-2.75,3.84-3.69,4.42-9.34,1.96-12.82-2.46-3.48-7.97-4.78-11.45-3.11-3.48,1.67-4.93,6.3-3.69,9.92,1.23,3.62,5.14,6.23,9.05,8.84"/><path class="c" d="m243.19,376.46c-4.71-1.99-10.93-5.18-16.17-7.4-5.24-2.22-9.49-3.46-29.19-11.03-19.7-7.57-54.86-21.47-78.33-31.09-23.48-9.62-35.27-14.98-41.84-17.2-6.57-2.22-7.92-1.3-8.25.08-.33,1.39.35,3.24-.61,3.88-.96.63-3.56.05-5.16-1.61-1.59-1.66-2.18-4.39-1.27-6.13.91-1.74,3.3-2.48,5.74-1.97,2.43.51,4.91,2.27,5.06,2.7.16.43-1.99-.46-3.53.32-1.54.78-2.47,3.22-1.73,4.85.74,1.62,3.14,2.43,28.83,12.36s74.68,28.99,99.61,38.93c24.92,9.93,25.78,10.74,31.43,12.04,5.64,1.3,16.07,3.08,19.69,3.57,3.62.49.44-.3-4.27-2.29Z"/><path class="c" d="m278.19,344.44c-4.95-1.26-11.59-3.47-17.1-4.88-5.51-1.4-9.9-2-30.52-6.52-20.62-4.52-57.46-12.97-82.12-18.95-24.66-5.98-37.12-9.5-43.95-10.7-6.83-1.2-8.03-.09-8.15,1.33-.12,1.42.83,3.15-.02,3.92-.85.77-3.52.58-5.34-.82-1.82-1.4-2.81-4.02-2.18-5.87.63-1.85,2.89-2.95,5.37-2.81,2.48.14,5.19,1.5,5.41,1.91.22.4-2.04-.16-3.45.84s-1.95,3.56-.98,5.05c.97,1.49,3.47,1.93,30.36,7.88,26.9,5.95,78.2,17.43,104.33,23.5,26.13,6.07,27.11,6.74,32.88,7.17,5.77.43,16.35.63,20.01.57,3.65-.06.39-.36-4.56-1.62Z"/><path class="c" d="m226.9,314.71c.89.5,1.79,1,2.11,1.44.32.44.07.81-.05,1s-.12.19-1.21.19c-1.08,0-3.24,0-5.16-.27-1.92-.27-3.6-.8-4.24-1.58-.64-.79-.23-1.83.93-2.79s3.07-1.85,7.56-2.78c4.48-.93,11.54-1.9,25.25-3.53,13.7-1.63,34.05-3.92,44.61-4.95,10.56-1.03,11.33-.81,12.26-1.08.93-.26,2.02-1.01,3.07-1.03,1.06-.03,2.08.66,3.32.54,1.24-.12,2.71-1.03,4.92-1.42,2.22-.39,5.19-.25,7.05-.14,1.86.11,2.61.19,3.08-.04.46-.22.64-.74,1.45-1.11.81-.37,2.26-.58,3.39.11,1.13.69,1.96,2.29,2.14,3.5.19,1.21-.26,2.02-1.01,2.6-.75.58-1.82.93-2.69,1.05-.88.11-1.57-.02-2.1-.29-.53-.27-.9-.69-2.33-.52-1.43.17-3.92.94-5.8,1.53-1.88.59-3.14,1.02-4.3.93-1.16-.09-2.22-.69-3.04-.76-.82-.07-1.42.4-2.31.79-.9.39-2.1.7-2.89-.08-.79-.78-1.17-2.66-1.22-3.73-.04-1.07.26-1.33.99-1.55.73-.22,1.89-.4,2.84.2.94.6,1.67,1.96,1.32,3.06-.35,1.1-1.78,1.93-2.92,2.27-1.13.33-1.96.17-3.02.38-1.05.21-2.33.8-4.32,1.23-1.99.43-4.71.7-15.71,2.04-11,1.34-30.29,3.76-40.9,4.58-10.62.82-12.56.05-14.68-.81-2.12-.86-4.42-1.79-5.97-2.06-1.56-.27-2.37.13-2.69.69-.32.57-.14,1.31.54,1.76.69.45,1.88.62,1.74.63-.14.02-1.62-.11-2.53-.57-.91-.47-1.25-1.28-.98-2.02.27-.74,1.16-1.41,2.54-1.62,1.38-.2,3.24.06,5.42.73,2.17.68,4.66,1.77,6.03,2.46,1.37.69,1.63.99,1.9,1.29"/><path class="c" d="m74.16,50.8c1.17-.15,2.33-.29,2.91,2.38.58,2.67.57,8.15-3.72,14.67-4.29,6.52-12.85,14.1-16.55,23.55-3.7,9.45-2.53,20.79,1.3,26.79,3.83,6,10.34,6.67,15.42,3.75,5.08-2.92,8.75-9.42,6.67-13.09-2.08-3.67-9.92-4.5-11,1.5-1.08,6,4.58,18.84-8.52,34.61-13.11,15.78-44.99,34.49-55.57,50.84-10.58,16.35.15,30.33,9.15,37.39,9.01,7.06,16.3,7.21,23.59,7.35"/><path class="d" d="m95.86,1.66c.79,0,1.59.03,2.38.08.79.06,1.58.16,2.35.3,1.29.22,2.46.6,3.5,1.13,1.04.53,1.89,1.28,2.53,2.24.31.48.46.95.44,1.41s-.12.83-.29,1.12c-.18.29-.4.45-.68.48-.28.04-.53-.14-.75-.53-.7-1.22-1.55-2.17-2.54-2.85-1-.68-2.1-1.18-3.32-1.49-1.12-.31-2.26-.52-3.4-.61-1.14-.09-2.3-.1-3.46-.03-.9.07-1.81.17-2.71.29-.9.12-1.83.25-2.77.4-.06.17-.29.67-.71,1.52-.41.85-.94,1.94-1.58,3.29-.64,1.35-1.36,2.9-2.17,4.66-.81,1.76-1.64,3.64-2.47,5.63-.84,1.99-1.67,4.06-2.49,6.19-.82,2.14-1.56,4.26-2.23,6.36-.28,1.81-.62,3.61-1.04,5.41-.41,1.8-.89,3.57-1.42,5.32-.13,1.49-.11,2.84.06,4.04.17,1.2.51,2.23,1.02,3.1.31.31.51.61.58.88.07.28.06.52-.03.73-.09.21-.25.36-.47.46-.22.09-.47.11-.73.06-.27-.06-.54-.21-.82-.46-.28-.25-.53-.61-.75-1.09-.22-.44-.37-1.03-.46-1.77-.08-.74-.1-1.59-.06-2.57.05-.98.16-2.06.33-3.25.17-1.19.4-2.46.68-3.8.2-.98.42-1.98.66-3,.24-1.02.51-2.09.8-3.19.48-2.82.79-5.44.93-7.85.14-2.42.07-4.64-.21-6.66-.28-2.03-.77-3.87-1.48-5.53-.71-1.66-1.67-3.14-2.89-4.45-.33-.37-.7-.65-1.11-.84-.41-.19-.82-.35-1.26-.48-.43-.13-.87-.24-1.31-.33-.44-.09-.87-.21-1.27-.36-.77-.28-1.25-.63-1.42-1.05-.18-.42-.17-.79.03-1.11.19-.31.5-.52.93-.61.42-.09.86.05,1.3.41.92.81,2.03,1.32,3.32,1.53,1.29.21,2.72.25,4.29.11,1.57-.14,3.24-.4,5.03-.77,1.79-.38,3.64-.76,5.56-1.15.07-.17.15-.33.22-.48.07-.16.16-.32.25-.48.24-.52.55-.88.94-1.11.39-.22.75-.31,1.09-.26.34.05.61.22.8.51.19.3.23.7.1,1.22,1.36-.24,2.72-.43,4.08-.57,1.35-.14,2.71-.19,4.08-.15h0Zm-19.66,22.48c.55-1.75,1.13-3.5,1.74-5.25.61-1.75,1.23-3.47,1.87-5.16.64-1.69,1.28-3.33,1.94-4.92.65-1.59,1.31-3.11,1.98-4.55-1.2.22-2.38.45-3.55.69-1.17.24-2.33.45-3.47.62-1.14.18-2.26.32-3.36.43-1.1.11-2.15.15-3.17.11,1.16.81,2.14,1.83,2.93,3.07.79,1.24,1.43,2.63,1.91,4.19.48,1.56.81,3.25,1,5.07.18,1.83.25,3.72.19,5.7h0Zm8.49,1.22c-.48.68-.88,1.43-1.2,2.25-.32.82-.47,1.6-.46,2.35.02.75.24,1.42.66,2.02.42.6,1.13,1.02,2.13,1.26.77.17,1.59.2,2.43.1.85-.1,1.71-.29,2.57-.57.87-.28,1.72-.64,2.56-1.08.84-.44,1.63-.91,2.38-1.41.75-.5,1.43-1.02,2.06-1.56.63-.54,1.15-1.06,1.58-1.56.3-.31.45-.58.47-.79s-.03-.35-.15-.41c-.12-.06-.29-.06-.51.03-.22.08-.43.25-.64.51-.11.15-.39.41-.83.8s-.99.82-1.63,1.31c-.65.49-1.35.98-2.13,1.48-.77.5-1.56.93-2.36,1.29-.8.36-1.58.61-2.32.75-.75.14-1.41.09-1.98-.15-.55-.22-.94-.55-1.15-1-.21-.44-.32-.93-.32-1.45s.08-1.06.23-1.59c.16-.53.33-1.01.51-1.44.63.02,1.24-.04,1.84-.18.6-.14,1.12-.33,1.58-.57.45-.24.81-.52,1.06-.84.26-.32.36-.67.3-1.04-.04-.31-.18-.6-.44-.86-.26-.26-.64-.44-1.13-.55-.53-.11-1.05-.09-1.55.06-.5.15-.97.37-1.41.68-.44.3-.85.65-1.22,1.04-.37.39-.68.77-.94,1.13h0Zm4.4-1.83c-.06-.11-.13-.17-.23-.18-.1,0-.23.06-.39.19-.16.14-.35.36-.58.68-.23.31-.49.75-.79,1.3.28.04.55-.01.82-.15.27-.14.5-.31.71-.53.2-.21.35-.44.44-.69.09-.25.1-.46.03-.62h0Zm16.51,5.12c.46-.09.76-.29.88-.59.13-.3.13-.59,0-.84-.13-.26-.37-.43-.72-.53-.35-.09-.78.02-1.3.33-.53.33-1.12.72-1.76,1.18-.64.45-1.28.95-1.92,1.48.09-.57.22-1.19.37-1.85.16-.66.34-1.36.54-2.1.11-.46.09-.83-.06-1.12-.15-.29-.37-.47-.66-.54-.3-.07-.62-.02-.97.15-.35.18-.66.49-.94.95-.26.44-.45.94-.58,1.49-.13.55-.21,1.12-.23,1.7-.03.58,0,1.16.07,1.73.07.57.19,1.11.36,1.6-.7.77-1.27,1.59-1.71,2.46-.44.87-.65,1.75-.64,2.65,0,.33.08.58.25.75s.34.24.53.23c.18,0,.35-.11.5-.29.15-.18.21-.45.19-.8.13-.83.31-1.58.54-2.24.23-.66.5-1.26.82-1.8.39.65.87,1.11,1.44,1.38.57.28,1.17.42,1.8.43.63,0,1.25-.08,1.88-.26.63-.18,1.2-.41,1.71-.69.68-.37,1.38-.82,2.09-1.35.71-.53,1.39-1.1,2.05-1.69.65-.59,1.25-1.18,1.8-1.76.54-.58,1.01-1.09,1.4-1.53.28-.3.42-.55.44-.76.02-.21-.04-.35-.18-.43-.14-.07-.32-.07-.54,0-.22.07-.42.24-.61.5-.3.37-.7.81-1.2,1.33-.51.52-1.07,1.05-1.69,1.6-.62.55-1.26,1.09-1.92,1.62-.66.53-1.31.97-1.94,1.34-.48.28-.99.52-1.53.72-.54.2-1.05.29-1.52.26-.47-.03-.88-.21-1.23-.54-.35-.33-.56-.88-.64-1.66-.02-.07-.03-.19-.03-.36.66-.59,1.41-1.05,2.23-1.38.82-.33,1.7-.59,2.64-.77h0Zm-4.87-13.14c-.28-.48-.55-.75-.83-.82-.28-.06-.49-.02-.64.14-.15.16-.2.36-.17.62.04.26.22.47.55.64.53.15,1.21.27,2.03.36.82.09,1.75.16,2.78.19,1.79.09,3.54.12,5.25.08,1.71-.04,3.42-.11,5.12-.22-.65,2.21-1.23,4.48-1.76,6.82-.53,2.33-.97,4.6-1.34,6.82-.37,2.21-.65,4.32-.83,6.32-.18,2-.25,3.77-.19,5.32.04,1.49.21,2.8.51,3.91.3,1.12.75,1.97,1.34,2.56.42.39.82.6,1.2.64.38.04.68-.02.9-.17.22-.15.33-.34.32-.58,0-.24-.18-.46-.51-.66-.94-.53-1.63-1.27-2.07-2.21-.44-.94-.68-2.15-.72-3.62-.04-.94,0-1.99.14-3.14.13-1.15.31-2.36.54-3.61.23-1.25.5-2.53.8-3.82.3-1.29.63-2.54.98-3.73.35-1.2.7-2.32,1.06-3.37.36-1.05.7-1.97,1.01-2.77.48-.74,1-1.54,1.55-2.41.55-.87,1.12-1.77,1.71-2.71.07,0,.14,0,.19-.03,1.16-.13,2.44-.29,3.83-.5,1.39-.2,2.8-.38,4.22-.53,1.42-.15,2.81-.25,4.16-.32,1.35-.06,2.58-.04,3.66.07,1,.11,1.85.32,2.56.62.71.3,1.19.75,1.45,1.34.18.41.42.64.72.71.29.06.56.03.8-.11.24-.14.4-.33.48-.58.08-.25,0-.47-.23-.68-.65-.52-1.45-.92-2.41-1.2-.96-.29-2.02-.5-3.18-.65-1.22-.13-2.5-.19-3.86-.18-1.35,0-2.71.06-4.08.14s-2.7.19-4,.32c-1.3.13-2.5.25-3.61.36.61-1.05,1.2-2.11,1.78-3.18.58-1.07,1.1-2.12,1.56-3.14.46-1.02.85-2,1.16-2.95.31-.94.52-1.81.61-2.6.09-.9,0-1.59-.25-2.07-.26-.48-.6-.77-1.02-.88-.42-.11-.89-.05-1.4.19-.51.24-.95.62-1.34,1.13-.55.7-1.1,1.54-1.63,2.53-.53.99-1.06,2.08-1.58,3.28-.52,1.2-1.02,2.49-1.52,3.87-.5,1.38-.97,2.82-1.41,4.31-1.86.2-3.72.36-5.57.47-1.85.11-3.7.12-5.54.03-.53-.04-1.07-.08-1.62-.14-.54-.06-1.11-.13-1.7-.22h0Zm20.3-8.57c.55-1.01,1.03-1.79,1.44-2.32.41-.53.69-.79.86-.77.17.02.19.31.07.87-.12.56-.43,1.42-.93,2.59-.5,1.24-1.09,2.51-1.77,3.83-.68,1.32-1.38,2.61-2.1,3.89l-.8.08c.44-1.49.94-2.94,1.48-4.33.54-1.39,1.13-2.67,1.76-3.83h0Zm-3.13,9.32l-.8,1.35c.06-.22.11-.44.17-.66.06-.22.12-.44.19-.66.07,0,.15,0,.22-.01.07,0,.15-.01.22-.01h0Zm2.54,8.9c.33-.31.66-.52,1-.62.33-.1.62-.12.87-.04.25.07.43.22.55.44.12.22.13.48.04.77-.31.94-.51,1.75-.58,2.43-.07.68-.06,1.25.06,1.7.11.45.3.81.58,1.06.28.26.61.43,1,.53.66.15,1.45.09,2.36-.18s1.83-.66,2.77-1.18c.93-.52,1.81-1.1,2.64-1.74.83-.65,1.49-1.26,1.99-1.85.18-.26.39-.42.61-.5.22-.07.4-.07.54,0,.14.07.2.22.18.43-.02.21-.17.47-.44.76-.61.72-1.34,1.43-2.2,2.13-.86.7-1.78,1.31-2.78,1.82-1,.52-2.02.91-3.08,1.19-1.06.28-2.1.36-3.11.25-.83-.07-1.53-.36-2.09-.87-.56-.51-.97-1.12-1.23-1.84-.26-.72-.36-1.49-.32-2.32.05-.83.26-1.62.65-2.38h0Zm1.16-3.54c.07-.31.22-.6.43-.86.21-.26.44-.47.69-.64.25-.17.49-.26.73-.29.24-.03.42.04.54.19.12.16.16.42.12.79-.04.37-.2.87-.5,1.49-.17.28-.39.47-.66.57-.28.1-.53.12-.76.07-.23-.06-.41-.19-.55-.41-.14-.22-.15-.53-.04-.91h0Zm14.74,3.98c-.22.46-.51,1.18-.87,2.16-.36.98-.72,2.07-1.09,3.28-.37,1.21-.7,2.47-.98,3.77-.29,1.31-.46,2.52-.53,3.64-.06,1.12.02,2.07.26,2.86.24.79.71,1.28,1.41,1.47.46.13.99.05,1.59-.23.6-.29,1.24-.72,1.92-1.3.68-.58,1.38-1.29,2.1-2.12.72-.83,1.44-1.71,2.16-2.65.72-.94,1.41-1.92,2.07-2.93.66-1.01,1.28-2,1.85-2.96.42-.72.84-1.42,1.26-2.12.41-.69.83-1.35,1.26-1.98.2-.33.41-.54.61-.62.2-.08.36-.08.47.01.11.09.16.26.14.51-.02.25-.15.54-.39.87-.46.7-.92,1.43-1.38,2.2-.46.77-.93,1.54-1.41,2.34-.87,1.46-1.85,2.9-2.95,4.33-1.1,1.43-2.22,2.71-3.37,3.83-1.15,1.12-2.27,2.01-3.35,2.67-1.08.65-2.02.94-2.83.84-.74-.09-1.32-.37-1.76-.84-.43-.47-.74-1.08-.93-1.83-.18-.75-.26-1.59-.24-2.54.03-.95.12-1.95.26-3,.15-1.05.35-2.12.59-3.19.25-1.08.51-2.12.79-3.11.41-1.53.85-3.08,1.34-4.65.49-1.57,1-3.1,1.53-4.6.53-1.5,1.09-2.95,1.66-4.33.57-1.38,1.15-2.66,1.74-3.83.59-1.17,1.18-2.21,1.76-3.13.58-.91,1.15-1.65,1.7-2.23.46-.46.95-.79,1.47-.98s.98-.23,1.4-.1c.41.13.73.43.94.91.21.48.23,1.17.07,2.07-.15.81-.42,1.7-.82,2.65-.4.96-.87,1.95-1.42,2.99-.55,1.03-1.17,2.08-1.85,3.15s-1.38,2.12-2.1,3.15c-.72,1.03-1.43,2.02-2.13,2.96-.7.94-1.36,1.81-1.96,2.6h0Zm5.75-13.88c.63-1,1.16-1.74,1.6-2.24.44-.5.75-.73.91-.7.17.03.17.32.01.88-.16.56-.52,1.41-1.09,2.53-.41.81-.85,1.64-1.34,2.49-.49.85-1,1.7-1.52,2.56-.53.86-1.06,1.7-1.62,2.53-.55.83-1.09,1.61-1.6,2.35.65-1.86,1.36-3.71,2.14-5.53.78-1.83,1.62-3.45,2.5-4.87h0Zm7.33,13.63c-.48.68-.88,1.43-1.2,2.25-.32.82-.47,1.6-.46,2.35s.24,1.42.66,2.02c.42.6,1.13,1.02,2.13,1.26.77.17,1.59.2,2.43.1.85-.1,1.71-.29,2.57-.57.87-.28,1.72-.64,2.56-1.08.84-.44,1.63-.91,2.38-1.41.75-.5,1.43-1.02,2.06-1.56.63-.54,1.15-1.06,1.58-1.56.3-.31.45-.58.47-.79.02-.21-.03-.35-.15-.41-.12-.06-.29-.06-.51.03-.22.08-.43.25-.64.51-.11.15-.39.41-.83.8s-.99.82-1.63,1.31c-.65.49-1.35.98-2.13,1.48-.77.5-1.56.93-2.36,1.29-.8.36-1.58.61-2.32.75-.75.14-1.41.09-1.98-.15-.55-.22-.94-.55-1.15-1s-.32-.93-.32-1.45.08-1.06.23-1.59c.16-.53.33-1.01.51-1.44.63.02,1.24-.04,1.84-.18.6-.14,1.12-.33,1.58-.57.45-.24.81-.52,1.06-.84.26-.32.36-.67.3-1.04-.04-.31-.18-.6-.44-.86-.26-.26-.64-.44-1.13-.55-.53-.11-1.05-.09-1.55.06-.5.15-.97.37-1.41.68-.44.3-.85.65-1.22,1.04-.37.39-.68.77-.94,1.13h0Zm4.4-1.83c.07.17.06.37-.03.62-.09.25-.24.48-.44.69-.2.21-.44.39-.71.53-.27.14-.54.19-.82.15.3-.55.56-.99.79-1.3.23-.31.42-.54.58-.68.16-.14.29-.2.39-.19.1,0,.18.07.23.18h0Zm55.86,20.93c-.52-1.03-.81-2.2-.88-3.5-.07-1.3,0-2.63.21-4,.21-1.36.51-2.71.9-4.02.39-1.32.78-2.51,1.19-3.58.33-.87.65-1.71.94-2.54.29-.83.56-1.68.8-2.54.24-.87.45-1.76.62-2.68s.32-1.91.43-2.96c.07-.7.06-1.32-.04-1.85-.1-.53-.3-.93-.61-1.19-.3-.26-.72-.36-1.24-.32-.53.05-1.18.3-1.98.76-1.01.57-2.01,1.32-3,2.25-.99.93-1.94,1.97-2.86,3.11-.92,1.14-1.8,2.36-2.63,3.65-.83,1.29-1.59,2.58-2.27,3.87-.33.63-.67,1.27-1.01,1.94-.34.66-.65,1.35-.94,2.06s-.53,1.42-.75,2.14c-.21.72-.35,1.45-.4,2.18-.04.53-.15.97-.35,1.31-.19.34-.4.54-.62.61-.22.06-.41-.04-.58-.3-.17-.27-.23-.73-.19-1.4.07-1.18.33-2.59.76-4.24.43-1.65.94-3.44,1.53-5.38.48-1.55.98-3.16,1.49-4.84.52-1.68,1-3.36,1.47-5.03.46-1.68.86-3.34,1.2-4.98.34-1.64.58-3.2.71-4.67.11-1.27.13-2.31.06-3.11s-.23-1.43-.46-1.88c-.23-.45-.53-.76-.88-.91-.36-.16-.77-.23-1.23-.21-.61.04-1.3.23-2.06.58-.76.35-1.56.85-2.39,1.49-.83.65-1.67,1.42-2.53,2.32-.86.9-1.69,1.92-2.5,3.04-1.59,2.21-3.12,4.6-4.62,7.16-1.49,2.56-2.87,5.2-4.12,7.91-1.25,2.71-2.35,5.43-3.29,8.17-.94,2.74-1.64,5.39-2.1,7.95-.28,1.57-.48,3.04-.61,4.41-.13,1.37-.17,2.6-.11,3.69.06,1.09.22,2,.5,2.75.28.75.67,1.28,1.19,1.59.33.18.47.41.43.68-.05.27-.19.48-.43.65-.24.17-.54.23-.9.19-.36-.04-.7-.27-1.04-.69-.33-.44-.57-1.12-.72-2.02-.15-.9-.22-1.98-.21-3.22,0-1.24.08-2.63.22-4.16.14-1.53.34-3.13.59-4.81.42-2.88,1.08-5.84,1.98-8.88.89-3.04,1.97-6.02,3.24-8.93,1.26-2.91,2.69-5.69,4.27-8.32,1.59-2.64,3.28-5.01,5.09-7.11.92-1.07,1.88-2.03,2.88-2.89,1-.86,1.97-1.58,2.93-2.16s1.89-.99,2.78-1.23c.89-.24,1.7-.28,2.42-.11.52.13.98.37,1.38.72.41.35.74.83,1,1.44.26.61.44,1.35.54,2.23.1.88.1,1.9-.01,3.08-.15,1.64-.4,3.33-.76,5.07-.36,1.74-.77,3.49-1.23,5.24-.46,1.75-.94,3.49-1.45,5.21-.51,1.72-.98,3.39-1.42,4.99.76-1.36,1.61-2.74,2.56-4.12.95-1.38,1.95-2.68,3-3.9,1.05-1.22,2.14-2.31,3.26-3.29,1.12-.98,2.24-1.74,3.35-2.3,1.05-.52,2.02-.83,2.92-.94.89-.11,1.64,0,2.23.33.59.33.98.9,1.18,1.71.19.81.11,1.86-.26,3.15-.44,1.66-1.01,3.36-1.71,5.1-.7,1.74-1.45,3.65-2.24,5.71-.24.59-.48,1.26-.73,2.02-.25.76-.47,1.56-.66,2.41-.19.85-.35,1.71-.46,2.59-.11.88-.14,1.73-.1,2.57.05.84.19,1.63.44,2.36.25.74.63,1.39,1.15,1.96.41.46.58.9.53,1.33-.06.42-.24.72-.54.9-.3.18-.67.18-1.09,0-.42-.18-.79-.64-1.11-1.4Z"/><path class="d" d="m226.53,26.38c-.2.17-.47.46-.79.88-.32.42-.69.89-1.09,1.41s-.85,1.04-1.33,1.56c-.48.53-.97.98-1.48,1.35-.51.38-1.02.64-1.55.79-.53.15-1.04.09-1.53-.17-.44-.22-.73-.6-.87-1.13s-.17-1.09-.1-1.66c.13-1.14.49-2.2,1.09-3.18.6-.98,1.35-1.81,2.24-2.5.89-.69,1.89-1.2,3-1.53,1.11-.33,2.24-.41,3.4-.25.7.09,1.35.31,1.96.65.61.34,1.07.84,1.38,1.51.15.31.18.56.08.75-.09.18-.23.29-.43.33-.19.04-.41-.01-.64-.15-.23-.14-.41-.37-.54-.71-.26-.48-.58-.84-.97-1.09s-.8-.39-1.24-.43c-.57-.06-1.15.05-1.74.32-.59.27-1.15.64-1.69,1.11-.53.47-1.02,1.01-1.47,1.62-.44.61-.79,1.23-1.05,1.85-.06.13-.12.3-.21.53-.08.22-.15.46-.21.7-.06.25-.09.49-.1.72,0,.23.03.41.12.54.07.11.25.07.54-.11.29-.18.62-.45,1.01-.79.39-.34.8-.73,1.23-1.18.43-.44.85-.87,1.24-1.27.4-.41.74-.77,1.04-1.08.3-.31.49-.52.58-.61.33-.31.66-.52,1-.62.33-.1.62-.12.87-.04.25.07.43.22.55.44.12.22.13.48.04.77-.31.94-.51,1.75-.58,2.43-.07.68-.06,1.25.06,1.7.11.45.3.81.58,1.06.28.26.61.43,1,.53.66.15,1.45.09,2.36-.18.91-.27,1.83-.66,2.77-1.18.93-.52,1.81-1.1,2.64-1.74.83-.65,1.49-1.26,1.99-1.85.18-.26.39-.42.61-.5.22-.07.4-.07.54,0,.14.07.2.22.18.43-.02.21-.17.47-.44.76-.61.72-1.34,1.43-2.2,2.13-.86.7-1.78,1.31-2.78,1.82-1,.52-2.02.91-3.08,1.19-1.06.28-2.1.36-3.11.25-.83-.07-1.52-.3-2.07-.68-.55-.38-.95-.85-1.2-1.41-.25-.56-.35-1.2-.29-1.91.06-.71.28-1.44.66-2.2h0Zm29.92,1.02c.09-.13.14-.26.15-.4,0-.14-.02-.26-.08-.36-.06-.1-.16-.17-.28-.21-.12-.04-.26-.02-.43.06-1.24.42-2.51.93-3.82,1.51-1.31.58-2.63,1.12-3.95,1.63-1.33.51-2.66.92-4.01,1.23-1.35.31-2.67.41-3.98.3.24-.66.48-1.32.73-1.96.25-.65.51-1.26.79-1.85.83-.83,1.69-1.57,2.57-2.23.88-.65,1.9-1.23,3.04-1.73.79-.33,1.58-.58,2.35-.73.77-.16,1.43-.2,1.96-.12.39.04.65-.05.8-.26.15-.21.17-.44.07-.69-.1-.25-.32-.46-.65-.64s-.77-.23-1.33-.15c-.37.07-.86.23-1.48.46-.62.23-1.28.53-1.98.9-.55.3-1.18.68-1.87,1.16-.69.48-1.41,1.01-2.14,1.6.61-.79,1.25-1.65,1.94-2.59.68-.93,1.36-1.89,2.03-2.88.67-.99,1.33-1.99,1.96-3,.64-1.01,1.21-2.01,1.73-3,.52-.99.95-1.93,1.31-2.83.36-.9.61-1.74.76-2.52.17-.9.14-1.59-.07-2.07-.21-.48-.53-.78-.94-.91-.41-.13-.88-.1-1.4.1s-1,.52-1.47.98c-.55.55-1.11,1.27-1.67,2.14-.56.88-1.13,1.88-1.71,3.01-.58,1.13-1.15,2.36-1.71,3.69-.56,1.33-1.11,2.71-1.63,4.15-.53,1.44-1.02,2.92-1.49,4.44-.47,1.52-.91,3.03-1.31,4.52-.61.61-1.11,1.16-1.49,1.66-.39.5-.59.89-.61,1.19-.02.31.07.55.26.72.19.17.47.29.84.39-.42,1.9-.76,3.69-1.01,5.36-.25,1.68-.37,3.15-.37,4.42-.04,1.49.06,2.81.28,3.94.22,1.13.61,2.01,1.16,2.64.39.41.77.64,1.13.71.37.06.67.03.9-.1.23-.13.35-.32.37-.57.02-.25-.14-.48-.47-.71-.9-.59-1.55-1.37-1.94-2.34-.39-.97-.54-2.19-.47-3.66.07-1.62.28-3.24.61-4.84.33-1.6.76-3.19,1.27-4.76.77-.04,1.68-.16,2.71-.36,1.03-.2,2.11-.45,3.22-.75,1.12-.29,2.24-.62,3.36-.98,1.12-.36,2.18-.71,3.15-1.05s1.84-.66,2.6-.95c.76-.3,1.32-.53,1.69-.72h0Zm-8.32-15.68c.63-1,1.16-1.74,1.6-2.24.44-.5.75-.73.91-.7.17.03.17.32.01.88-.16.56-.52,1.41-1.09,2.53-.41.81-.85,1.64-1.34,2.49-.49.85-1,1.7-1.52,2.56-.53.86-1.06,1.7-1.62,2.53-.55.83-1.09,1.61-1.6,2.35.65-1.86,1.36-3.71,2.14-5.53.78-1.83,1.62-3.45,2.5-4.87h0Zm-9.6,19.16l.14-.53c-.07.09-.15.17-.22.23s-.15.13-.22.21l.3.08h0Zm17.95-5.53c.26-.37.57-.75.94-1.13.37-.39.77-.73,1.22-1.04.44-.3.91-.53,1.41-.68.5-.15,1.01-.17,1.55-.06.5.11.88.3,1.13.55.26.26.41.54.44.86.06.37-.05.71-.3,1.04-.26.32-.61.6-1.06.84-.45.24-.98.43-1.58.57-.6.14-1.21.2-1.84.18-.18.42-.35.9-.51,1.44-.16.53-.23,1.06-.23,1.59s.11,1.01.32,1.45c.21.44.59.77,1.15,1,.57.24,1.23.29,1.98.15.75-.14,1.52-.39,2.32-.75.8-.36,1.59-.79,2.36-1.29.77-.5,1.48-.99,2.13-1.48.65-.49,1.19-.93,1.63-1.31s.72-.65.83-.8c.2-.26.41-.43.64-.51.22-.08.39-.09.51-.03.12.06.17.2.15.41s-.18.47-.47.79c-.42.5-.95,1.02-1.58,1.56-.63.54-1.31,1.06-2.06,1.56-.75.5-1.54.97-2.38,1.41-.84.44-1.69.8-2.56,1.08-.87.28-1.72.47-2.57.57-.85.1-1.66.07-2.43-.1-1-.24-1.71-.66-2.13-1.26-.42-.6-.65-1.27-.66-2.02-.02-.75.13-1.53.46-2.35.32-.82.72-1.57,1.2-2.25h0Zm4.4-1.83c-.06-.11-.13-.17-.23-.18-.1,0-.23.06-.39.19-.16.14-.35.36-.58.68-.23.31-.49.75-.79,1.3.28.04.55-.01.82-.15.27-.14.5-.31.71-.53.2-.21.35-.44.44-.69.09-.25.1-.46.03-.62h0Zm26.63,3.65c.28-.3.43-.54.46-.75.03-.2-.02-.34-.15-.4-.13-.06-.3-.06-.53,0-.22.06-.44.22-.66.46-.26.28-.59.65-1.01,1.13-.41.48-.88,1-1.4,1.58-.52.57-1.08,1.16-1.69,1.77-.61.61-1.24,1.18-1.88,1.7-.65.53-1.3.98-1.95,1.37-.65.39-1.29.65-1.89.8-.26.06-.53.09-.83.1-.29,0-.56-.03-.8-.11-.24-.08-.44-.22-.59-.4-.16-.18-.24-.43-.24-.75s.08-.65.24-1.02c.16-.37.34-.75.55-1.15.21-.4.41-.79.61-1.19.19-.4.33-.78.4-1.16.07-.38.05-.74-.07-1.08-.12-.34-.39-.65-.82-.93-.18-.11-.43-.23-.75-.36-.31-.13-.63-.27-.94-.41-.31-.15-.59-.3-.83-.46-.24-.16-.38-.33-.41-.51-.02-.06.03-.12.14-.19.11-.07.24-.16.37-.26.14-.1.26-.21.36-.33.1-.12.13-.26.1-.43-.02-.17-.09-.31-.21-.43-.12-.12-.27-.21-.44-.26-.18-.06-.37-.07-.58-.06s-.42.08-.62.19c-.53.33-.89.73-1.08,1.2-.18.47-.24.89-.17,1.26.07.35.24.66.5.93.26.27.56.49.9.66.34.18.71.3,1.09.37.39.07.77.08,1.13.03-.31.41-.6.89-.87,1.45-.27.56-.47,1.15-.61,1.76-.14.61-.18,1.22-.14,1.83.05.61.24,1.16.59,1.66.46.59,1.03.97,1.7,1.13.67.17,1.34.19,2,.08.74-.13,1.48-.39,2.24-.77s1.49-.85,2.21-1.4c.72-.54,1.41-1.13,2.09-1.76.67-.63,1.3-1.24,1.87-1.85.57-.61,1.08-1.18,1.52-1.71s.8-.98,1.08-1.33h0Zm15.1.19c-.48.28-1.05.61-1.71,1.01-.66.4-1.38.83-2.14,1.3-.77.47-1.58.97-2.43,1.51-.86.53-1.72,1.1-2.59,1.69.81,1.16,1.1,2.42.86,3.76-.24,1.35-.83,2.74-1.77,4.18-.5.76-1.07,1.47-1.73,2.16-.65.68-1.34,1.29-2.05,1.81-.71.53-1.42.94-2.13,1.26-.71.31-1.37.47-1.98.47-.52,0-.99-.06-1.42-.19-.43-.13-.8-.33-1.11-.59-.3-.27-.53-.61-.66-1.02-.14-.41-.17-.91-.1-1.48.11-.83.47-1.7,1.08-2.6.61-.9,1.37-1.81,2.3-2.72.92-.91,1.96-1.82,3.12-2.72,1.16-.9,2.36-1.77,3.59-2.6-.42-.41-.94-.78-1.56-1.12s-1.2-.7-1.76-1.09c-.55-.39-1.02-.83-1.4-1.33-.38-.5-.55-1.12-.51-1.88.04-.7.24-1.36.62-1.98.38-.62.86-1.14,1.44-1.56.58-.42,1.23-.73,1.95-.93.72-.19,1.44-.21,2.16-.04.44.09.78.24,1.01.46.23.21.38.43.44.66.06.23.05.45-.04.66-.09.21-.24.37-.43.47-.19.1-.43.14-.72.11-.29-.03-.59-.18-.9-.46-.48-.41-.94-.62-1.38-.65-.44-.03-.83.08-1.16.32-.33.24-.59.59-.77,1.04-.18.45-.25.95-.19,1.51.06.55.24,1.06.55,1.52.31.46.69.89,1.12,1.3.43.41.88.79,1.35,1.16.47.37.9.73,1.29,1.08,1.71-1.12,3.36-2.15,4.95-3.07,1.59-.92,2.92-1.68,4.01-2.27.31-.18.59-.28.84-.29.25,0,.42.04.53.15.1.11.12.26.04.46-.07.19-.28.38-.61.57h0Zm-10.01,7.44c-.09.63-.36,1.36-.8,2.2-.44.84-1.08,1.83-1.91,2.97-.41.55-.83,1.08-1.29,1.58-.45.5-.9.95-1.35,1.37-.45.41-.89.78-1.33,1.09-.43.31-.83.54-1.2.69-.35.15-.66.19-.93.14s-.48-.17-.64-.35c-.16-.18-.25-.41-.29-.69-.04-.29,0-.59.08-.9.18-.63.57-1.31,1.16-2.06.59-.75,1.32-1.52,2.18-2.31.87-.79,1.83-1.6,2.9-2.42,1.07-.82,2.18-1.63,3.32-2.42.11.33.14.7.08,1.11h0Zm18.09-4.7c.76-.31,1.53-.59,2.34-.83.8-.24,1.59-.46,2.36-.65s1.53-.37,2.25-.53c.73-.16,1.4-.31,2-.46.17-.04.3-.15.41-.33.11-.18.15-.36.12-.54-.03-.18-.14-.31-.33-.4-.19-.09-.51-.06-.95.11-1.09.37-2.27.73-3.54,1.08-1.27.35-2.57.76-3.9,1.22.59-1.55.73-2.76.43-3.64-.3-.88-1-1.26-2.09-1.15-.63.07-1.23.29-1.81.64-.58.35-1.13.78-1.65,1.29-.52.51-1,1.06-1.44,1.66-.44.6-.84,1.18-1.2,1.74-.36.56-.67,1.07-.93,1.53-.26.46-.46.8-.61,1.02.74-1.84,1.47-3.52,2.21-5.03.74-1.51,1.36-2.72,1.88-3.62.17-.28.18-.53.03-.76-.15-.23-.36-.4-.65-.5-.29-.1-.6-.11-.95-.01s-.65.33-.88.72c-1,1.51-1.87,3.26-2.61,5.24-.75,1.98-1.38,4.03-1.89,6.14-.52,2.11-.92,4.19-1.2,6.24-.29,2.05-.46,3.9-.51,5.56-.04,1.49.11,2.83.44,4.01.33,1.18.77,2.08,1.33,2.71.39.41.77.64,1.13.71.37.06.67.03.9-.1.23-.13.35-.32.37-.57s-.14-.48-.47-.71c-1.05-.68-1.8-1.58-2.24-2.68-.44-1.11-.65-2.34-.61-3.71.02-1.14.18-2.35.47-3.62.3-1.27.68-2.54,1.16-3.8.48-1.26,1.02-2.49,1.63-3.69.61-1.2,1.24-2.31,1.91-3.35.66-1.03,1.32-1.94,1.98-2.72.65-.78,1.27-1.4,1.84-1.84.5-.37.89-.57,1.18-.61.29-.04.49.04.62.22.13.18.2.44.21.77,0,.33-.02.68-.1,1.05-.07.37-.17.73-.28,1.08-.11.35-.22.63-.33.83-1.46.59-2.51,1.15-3.15,1.67-.65.53-1,.97-1.06,1.34-.06.37.1.63.5.79.4.16.91.15,1.55-.03.64-.18,1.33-.54,2.07-1.11.75-.56,1.43-1.36,2.06-2.39h0Zm15.98-3.73c-.2.17-.47.46-.79.88-.32.42-.69.89-1.09,1.41-.41.52-.85,1.04-1.33,1.56-.48.53-.97.98-1.48,1.35-.51.38-1.02.64-1.55.79-.53.15-1.04.09-1.53-.17-.44-.22-.73-.6-.87-1.13-.14-.53-.17-1.09-.1-1.66.13-1.14.49-2.2,1.09-3.18.6-.98,1.35-1.81,2.24-2.5.89-.69,1.89-1.2,3-1.53,1.11-.33,2.24-.41,3.4-.25.7.09,1.35.31,1.96.65.61.34,1.07.84,1.38,1.51.15.31.18.56.08.75-.09.18-.23.29-.43.33-.19.04-.41-.01-.64-.15-.23-.14-.41-.37-.54-.71-.26-.48-.58-.84-.97-1.09-.39-.25-.8-.39-1.24-.43-.57-.06-1.15.05-1.74.32-.59.27-1.15.64-1.69,1.11-.53.47-1.02,1.01-1.47,1.62-.44.61-.79,1.23-1.05,1.85-.06.13-.12.3-.21.53-.08.22-.15.46-.21.7-.06.25-.09.49-.1.72,0,.23.03.41.12.54.07.11.25.07.54-.11.29-.18.62-.45,1.01-.79.39-.34.8-.73,1.23-1.18.43-.44.85-.87,1.24-1.27.4-.41.74-.77,1.04-1.08.3-.31.49-.52.58-.61.33-.31.66-.52,1-.62.33-.1.62-.12.87-.04.25.07.43.22.55.44.12.22.13.48.04.77-.31.94-.51,1.75-.58,2.43-.07.68-.06,1.25.06,1.7.11.45.3.81.58,1.06.28.26.61.43,1,.53.66.15,1.45.09,2.36-.18.91-.27,1.83-.66,2.77-1.18.93-.52,1.81-1.1,2.64-1.74.83-.65,1.49-1.26,1.99-1.85.18-.26.39-.42.61-.5.22-.07.4-.07.54,0,.14.07.2.22.18.43-.02.21-.17.47-.44.76-.61.72-1.34,1.43-2.2,2.13-.86.7-1.78,1.31-2.78,1.82-1,.52-2.02.91-3.08,1.19-1.06.28-2.1.36-3.11.25-.83-.07-1.52-.3-2.07-.68-.55-.38-.95-.85-1.2-1.41-.25-.56-.35-1.2-.29-1.91.06-.71.28-1.44.66-2.2h0Zm20.46-2.96c-.02.35.05.63.19.83.15.2.31.32.5.36.18.04.36,0,.53-.14.17-.13.25-.36.25-.69-.15-.7-.41-1.24-.8-1.6-.39-.37-.84-.54-1.35-.53-1.07.04-2.07.35-3.01.93-.94.58-1.76,1.3-2.45,2.16-.69.86-1.23,1.78-1.6,2.77-.38.99-.55,1.9-.51,2.75.04.9.32,1.58.86,2.03s1.18.77,1.94.95c.77.17,1.59.2,2.43.1.85-.1,1.71-.29,2.57-.57.87-.28,1.72-.64,2.56-1.08.84-.44,1.63-.91,2.38-1.41.75-.5,1.43-1.02,2.06-1.56.63-.54,1.15-1.06,1.58-1.56.3-.31.45-.58.47-.79s-.03-.35-.15-.41c-.12-.06-.29-.06-.51.03-.22.08-.43.25-.64.51-.11.15-.39.41-.83.8s-.99.82-1.63,1.31c-.65.49-1.35.98-2.13,1.48-.77.5-1.56.93-2.36,1.29-.8.36-1.58.61-2.32.75-.75.14-1.41.09-1.98-.15-.44-.18-.78-.46-1.02-.83-.24-.37-.39-.76-.44-1.19-.06-.63.03-1.33.25-2.1.22-.77.53-1.52.93-2.24.4-.72.87-1.36,1.41-1.91.54-.55,1.1-.93,1.67-1.13.29-.09.55-.08.77.04.22.12.36.39.41.82h0Zm7.94,1.94c.26-.37.57-.75.94-1.13.37-.39.77-.73,1.22-1.04.44-.3.91-.53,1.41-.68.5-.15,1.01-.17,1.55-.06.5.11.88.3,1.13.55.26.26.41.54.44.86.06.37-.05.71-.3,1.04-.26.32-.61.6-1.06.84-.45.24-.98.43-1.58.57-.6.14-1.21.2-1.84.18-.18.42-.35.9-.51,1.44-.16.53-.23,1.06-.23,1.59s.11,1.01.32,1.45.59.77,1.15,1c.57.24,1.23.29,1.98.15.75-.14,1.52-.39,2.32-.75.8-.36,1.59-.79,2.36-1.29.77-.5,1.48-.99,2.13-1.48.65-.49,1.19-.93,1.63-1.31s.72-.65.83-.8c.2-.26.41-.43.64-.51.22-.08.39-.09.51-.03.12.06.17.2.15.41-.02.21-.18.47-.47.79-.42.5-.95,1.02-1.58,1.56-.63.54-1.31,1.06-2.06,1.56-.75.5-1.54.97-2.38,1.41-.84.44-1.69.8-2.56,1.08-.87.28-1.72.47-2.57.57-.85.1-1.66.07-2.43-.1-1-.24-1.71-.66-2.13-1.26-.42-.6-.65-1.27-.66-2.02s.13-1.53.46-2.35c.32-.82.72-1.57,1.2-2.25h0Zm4.4-1.83c-.06-.11-.13-.17-.23-.18-.1,0-.23.06-.39.19-.16.14-.35.36-.58.68-.23.31-.49.75-.79,1.3.28.04.55-.01.82-.15.27-.14.5-.31.71-.53.2-.21.35-.44.44-.69.09-.25.1-.46.03-.62Z"/></svg>